<ttFont>
    <TTGlyph name=".notdef" xMin="193" yMin="0" xMax="1034" yMax="1462">
      <contour>
        <pt x="193" y="1462" on="1"/>
        <pt x="1034" y="1462" on="1"/>
        <pt x="1034" y="0" on="1"/>
        <pt x="193" y="0" on="1"/>
      </contour>
      <contour>
        <pt x="297" y="104" on="1"/>
        <pt x="930" y="104" on="1"/>
        <pt x="930" y="1358" on="1"/>
        <pt x="297" y="1358" on="1"/>
      </contour>
    </TTGlyph>
    <TTGlyph name="uni13A0" xMin="115" yMin="0" xMax="1313" yMax="1324">
      <contour>
        <pt x="1313" y="673" on="1"/>
        <pt x="1313" y="347" on="0"/>
        <pt x="970" y="0" on="0"/>
        <pt x="646" y="0" on="1"/>
        <pt x="115" y="0" on="1"/>
        <pt x="115" y="105" on="1"/>
        <pt x="267" y="120" on="1"/>
        <pt x="267" y="1194" on="1"/>
        <pt x="115" y="1209" on="1"/>
        <pt x="115" y="1324" on="1"/>
        <pt x="685" y="1324" on="1"/>
        <pt x="982" y="1324" on="0"/>
        <pt x="1313" y="982" on="0"/>
      </contour>
      <contour>
        <pt x="1139" y="667" on="1"/>
        <pt x="1139" y="923" on="0"/>
        <pt x="894" y="1194" on="0"/>
        <pt x="659" y="1194" on="1"/>
        <pt x="435" y="1194" on="1"/>
        <pt x="435" y="130" on="1"/>
        <pt x="632" y="130" on="1"/>
        <pt x="884" y="130" on="0"/>
        <pt x="1139" y="404" on="0"/>
      </contour>
    </TTGlyph>
    <TTGlyph name="uni13A1" xMin="115" yMin="-7" xMax="1258" yMax="1324">
      <contour>
        <pt x="115" y="105" on="1"/>
        <pt x="266" y="120" on="1"/>
        <pt x="266" y="1204" on="1"/>
        <pt x="115" y="1219" on="1"/>
        <pt x="115" y="1324" on="1"/>
        <pt x="646" y="1324" on="1"/>
        <pt x="1147" y="1324" on="0"/>
        <pt x="1147" y="978" on="1"/>
        <pt x="1147" y="699" on="0"/>
        <pt x="886" y="640" on="1"/>
        <pt x="886" y="633" on="1"/>
        <pt x="953" y="607" on="0"/>
        <pt x="1048" y="472" on="0"/>
        <pt x="1068" y="366" on="1"/>
        <pt x="1100" y="204" on="1"/>
        <pt x="1110" y="156" on="0"/>
        <pt x="1170" y="120" on="0"/>
        <pt x="1221" y="120" on="1"/>
        <pt x="1247" y="122" on="1"/>
        <pt x="1258" y="17" on="1"/>
        <pt x="1218" y="-7" on="0"/>
        <pt x="1130" y="-7" on="1"/>
        <pt x="1028" y="-7" on="0"/>
        <pt x="977" y="65" on="1"/>
        <pt x="953" y="99" on="0"/>
        <pt x="926" y="223" on="0"/>
        <pt x="909" y="321" on="1"/>
        <pt x="872" y="549" on="0"/>
        <pt x="739" y="577" on="1"/>
        <pt x="434" y="577" on="1"/>
        <pt x="434" y="120" on="1"/>
        <pt x="598" y="105" on="1"/>
        <pt x="598" y="0" on="1"/>
        <pt x="115" y="0" on="1"/>
      </contour>
      <contour>
        <pt x="434" y="702" on="1"/>
        <pt x="686" y="702" on="1"/>
        <pt x="830" y="702" on="0"/>
        <pt x="973" y="825" on="0"/>
        <pt x="973" y="954" on="1"/>
        <pt x="973" y="1050" on="0"/>
        <pt x="910" y="1150" on="0"/>
        <pt x="771" y="1194" on="0"/>
        <pt x="635" y="1194" on="1"/>
        <pt x="434" y="1194" on="1"/>
      </contour>
    </TTGlyph>
    <TTGlyph name="uni13A2" xMin="100" yMin="0" xMax="1270" yMax="1324">
      <contour>
        <pt x="769" y="1194" on="1"/>
        <pt x="769" y="120" on="1"/>
        <pt x="954" y="105" on="1"/>
        <pt x="954" y="0" on="1"/>
        <pt x="415" y="0" on="1"/>
        <pt x="415" y="105" on="1"/>
        <pt x="601" y="120" on="1"/>
        <pt x="601" y="1194" on="1"/>
        <pt x="244" y="1194" on="1"/>
        <pt x="229" y="987" on="1"/>
        <pt x="100" y="987" on="1"/>
        <pt x="100" y="1324" on="1"/>
        <pt x="1270" y="1324" on="1"/>
        <pt x="1270" y="987" on="1"/>
        <pt x="1140" y="987" on="1"/>
        <pt x="1126" y="1194" on="1"/>
      </contour>
    </TTGlyph>
    <TTGlyph name="uni13A3" xMin="70" yMin="-21" xMax="1477" yMax="1324">
      <contour>
        <pt x="453" y="838" on="1"/>
        <pt x="487" y="838" on="0"/>
        <pt x="523" y="832" on="1"/>
        <pt x="559" y="848" on="0"/>
        <pt x="637" y="898" on="0"/>
        <pt x="712" y="966" on="0"/>
        <pt x="765" y="1032" on="0"/>
        <pt x="767" y="1066" on="1"/>
        <pt x="767" y="1204" on="1"/>
        <pt x="610" y="1219" on="1"/>
        <pt x="610" y="1324" on="1"/>
        <pt x="1083" y="1324" on="1"/>
        <pt x="1083" y="1219" on="1"/>
        <pt x="926" y="1204" on="1"/>
        <pt x="926" y="1021" on="1"/>
        <pt x="1195" y="956" on="0"/>
        <pt x="1477" y="689" on="0"/>
        <pt x="1477" y="479" on="1"/>
        <pt x="1477" y="269" on="0"/>
        <pt x="1202" y="-3" on="0"/>
        <pt x="970" y="-21" on="1"/>
        <pt x="970" y="111" on="1"/>
        <pt x="1313" y="171" on="0"/>
        <pt x="1313" y="478" on="1"/>
        <pt x="1313" y="654" on="0"/>
        <pt x="1075" y="861" on="0"/>
        <pt x="847" y="905" on="1"/>
        <pt x="758" y="826" on="0"/>
        <pt x="674" y="778" on="1"/>
        <pt x="754" y="721" on="0"/>
        <pt x="835" y="543" on="0"/>
        <pt x="835" y="434" on="1"/>
        <pt x="835" y="247" on="0"/>
        <pt x="629" y="15" on="0"/>
        <pt x="453" y="15" on="1"/>
        <pt x="273" y="15" on="0"/>
        <pt x="70" y="231" on="0"/>
        <pt x="70" y="419" on="1"/>
        <pt x="70" y="607" on="0"/>
        <pt x="277" y="838" on="0"/>
      </contour>
      <contour>
        <pt x="453" y="143" on="1"/>
        <pt x="560" y="143" on="0"/>
        <pt x="679" y="297" on="0"/>
        <pt x="679" y="430" on="1"/>
        <pt x="679" y="563" on="0"/>
        <pt x="560" y="709" on="0"/>
        <pt x="453" y="709" on="1"/>
        <pt x="347" y="709" on="0"/>
        <pt x="226" y="556" on="0"/>
        <pt x="226" y="423" on="1"/>
        <pt x="226" y="293" on="0"/>
        <pt x="345" y="143" on="0"/>
      </contour>
    </TTGlyph>
    <TTGlyph name="uni13A4" xMin="115" yMin="-20" xMax="1929" yMax="1344">
      <contour>
        <pt x="1530" y="593" on="1"/>
        <pt x="1660" y="593" on="0"/>
        <pt x="1788" y="766" on="0"/>
        <pt x="1788" y="951" on="1"/>
        <pt x="1788" y="1203" on="0"/>
        <pt x="1637" y="1203" on="1"/>
        <pt x="1567" y="1203" on="0"/>
        <pt x="1506" y="1113" on="0"/>
        <pt x="1506" y="1019" on="1"/>
        <pt x="1506" y="953" on="1"/>
        <pt x="1384" y="953" on="1"/>
        <pt x="1378" y="980" on="0"/>
        <pt x="1378" y="1057" on="1"/>
        <pt x="1378" y="1187" on="0"/>
        <pt x="1513" y="1333" on="0"/>
        <pt x="1631" y="1333" on="1"/>
        <pt x="1773" y="1333" on="0"/>
        <pt x="1929" y="1132" on="0"/>
        <pt x="1929" y="951" on="1"/>
        <pt x="1929" y="713" on="0"/>
        <pt x="1723" y="448" on="0"/>
        <pt x="1543" y="448" on="1"/>
        <pt x="1441" y="448" on="0"/>
        <pt x="1299" y="522" on="0"/>
        <pt x="1246" y="596" on="1"/>
        <pt x="1223" y="296" on="0"/>
        <pt x="939" y="-20" on="0"/>
        <pt x="687" y="-20" on="1"/>
        <pt x="404" y="-20" on="0"/>
        <pt x="115" y="332" on="0"/>
        <pt x="115" y="664" on="1"/>
        <pt x="115" y="990" on="0"/>
        <pt x="416" y="1344" on="0"/>
        <pt x="692" y="1344" on="1"/>
        <pt x="1114" y="1344" on="0"/>
        <pt x="1227" y="886" on="1"/>
        <pt x="1261" y="746" on="0"/>
        <pt x="1424" y="593" on="0"/>
      </contour>
      <contour>
        <pt x="289" y="663" on="1"/>
        <pt x="289" y="395" on="0"/>
        <pt x="490" y="120" on="0"/>
        <pt x="687" y="120" on="1"/>
        <pt x="886" y="120" on="0"/>
        <pt x="1081" y="390" on="0"/>
        <pt x="1081" y="663" on="1"/>
        <pt x="1081" y="1204" on="0"/>
        <pt x="692" y="1204" on="1"/>
        <pt x="289" y="1204" on="0"/>
      </contour>
    </TTGlyph>
    <TTGlyph name="uni13A5" xMin="75" yMin="0" xMax="547" yMax="1344">
      <contour>
        <pt x="395" y="873" on="1"/>
        <pt x="395" y="120" on="1"/>
        <pt x="547" y="105" on="1"/>
        <pt x="547" y="0" on="1"/>
        <pt x="75" y="0" on="1"/>
        <pt x="75" y="105" on="1"/>
        <pt x="227" y="120" on="1"/>
        <pt x="227" y="873" on="1"/>
      </contour>
      <contour>
        <pt x="208" y="1228" on="1"/>
        <pt x="208" y="1288" on="0"/>
        <pt x="267" y="1344" on="0"/>
        <pt x="311" y="1344" on="1"/>
        <pt x="354" y="1344" on="0"/>
        <pt x="414" y="1288" on="0"/>
        <pt x="414" y="1228" on="1"/>
        <pt x="414" y="1169" on="0"/>
        <pt x="354" y="1110" on="0"/>
        <pt x="311" y="1110" on="1"/>
        <pt x="267" y="1110" on="0"/>
        <pt x="208" y="1168" on="0"/>
      </contour>
    </TTGlyph>
    <TTGlyph name="uni13A6" xMin="135" yMin="-20" xMax="1121" yMax="1344">
      <contour>
        <pt x="266" y="727" on="1"/>
        <pt x="291" y="727" on="0"/>
        <pt x="386" y="721" on="0"/>
        <pt x="406" y="717" on="1"/>
        <pt x="406" y="727" on="1"/>
        <pt x="299" y="796" on="0"/>
        <pt x="216" y="928" on="0"/>
        <pt x="216" y="1010" on="1"/>
        <pt x="216" y="1164" on="0"/>
        <pt x="446" y="1344" on="0"/>
        <pt x="636" y="1344" on="1"/>
        <pt x="748" y="1344" on="0"/>
        <pt x="927" y="1276" on="0"/>
        <pt x="1027" y="1157" on="0"/>
        <pt x="1027" y="1087" on="1"/>
        <pt x="1027" y="1021" on="0"/>
        <pt x="965" y="959" on="0"/>
        <pt x="917" y="959" on="1"/>
        <pt x="867" y="959" on="0"/>
        <pt x="811" y="1010" on="0"/>
        <pt x="811" y="1052" on="1"/>
        <pt x="811" y="1075" on="0"/>
        <pt x="835" y="1126" on="0"/>
        <pt x="861" y="1141" on="1"/>
        <pt x="841" y="1170" on="0"/>
        <pt x="722" y="1211" on="0"/>
        <pt x="634" y="1211" on="1"/>
        <pt x="510" y="1211" on="0"/>
        <pt x="376" y="1114" on="0"/>
        <pt x="376" y="1023" on="1"/>
        <pt x="376" y="932" on="0"/>
        <pt x="495" y="807" on="0"/>
        <pt x="651" y="740" on="1"/>
        <pt x="1121" y="740" on="1"/>
        <pt x="1121" y="622" on="1"/>
        <pt x="958" y="622" on="1"/>
        <pt x="933" y="622" on="0"/>
        <pt x="838" y="628" on="0"/>
        <pt x="818" y="632" on="1"/>
        <pt x="818" y="622" on="1"/>
        <pt x="947" y="539" on="0"/>
        <pt x="1034" y="410" on="0"/>
        <pt x="1034" y="327" on="1"/>
        <pt x="1034" y="166" on="0"/>
        <pt x="788" y="-20" on="0"/>
        <pt x="566" y="-20" on="1"/>
        <pt x="451" y="-20" on="0"/>
        <pt x="276" y="45" on="0"/>
        <pt x="181" y="161" on="0"/>
        <pt x="181" y="232" on="1"/>
        <pt x="181" y="293" on="0"/>
        <pt x="246" y="361" on="0"/>
        <pt x="294" y="361" on="1"/>
        <pt x="345" y="361" on="0"/>
        <pt x="400" y="307" on="0"/>
        <pt x="400" y="264" on="1"/>
        <pt x="400" y="205" on="0"/>
        <pt x="339" y="178" on="1"/>
        <pt x="367" y="150" on="0"/>
        <pt x="489" y="116" on="0"/>
        <pt x="565" y="116" on="1"/>
        <pt x="712" y="116" on="0"/>
        <pt x="870" y="224" on="0"/>
        <pt x="870" y="324" on="1"/>
        <pt x="870" y="415" on="0"/>
        <pt x="729" y="549" on="0"/>
        <pt x="585" y="608" on="1"/>
        <pt x="135" y="608" on="1"/>
        <pt x="135" y="727" on="1"/>
      </contour>
    </TTGlyph>
    <TTGlyph name="uni13A7" xMin="101" yMin="-20" xMax="1395" yMax="1344">
      <contour>
        <pt x="795" y="643" on="1"/>
        <pt x="795" y="488" on="0"/>
        <pt x="608" y="259" on="0"/>
        <pt x="438" y="197" on="1"/>
        <pt x="538" y="120" on="0"/>
        <pt x="720" y="120" on="1"/>
        <pt x="864" y="120" on="0"/>
        <pt x="1092" y="253" on="0"/>
        <pt x="1221" y="507" on="0"/>
        <pt x="1221" y="680" on="1"/>
        <pt x="1221" y="925" on="0"/>
        <pt x="941" y="1204" on="0"/>
        <pt x="699" y="1204" on="1"/>
        <pt x="597" y="1204" on="0"/>
        <pt x="381" y="1133" on="0"/>
        <pt x="316" y="1078" on="1"/>
        <pt x="235" y="1183" on="1"/>
        <pt x="314" y="1257" on="0"/>
        <pt x="564" y="1344" on="0"/>
        <pt x="706" y="1344" on="1"/>
        <pt x="1028" y="1344" on="0"/>
        <pt x="1395" y="992" on="0"/>
        <pt x="1395" y="680" on="1"/>
        <pt x="1395" y="474" on="0"/>
        <pt x="1228" y="154" on="0"/>
        <pt x="918" y="-20" on="0"/>
        <pt x="720" y="-20" on="1"/>
        <pt x="536" y="-20" on="0"/>
        <pt x="253" y="122" on="0"/>
        <pt x="101" y="378" on="0"/>
        <pt x="101" y="538" on="1"/>
        <pt x="101" y="735" on="0"/>
        <pt x="301" y="971" on="0"/>
        <pt x="467" y="971" on="1"/>
        <pt x="621" y="971" on="0"/>
        <pt x="795" y="791" on="0"/>
      </contour>
      <contour>
        <pt x="475" y="847" on="1"/>
        <pt x="375" y="847" on="0"/>
        <pt x="268" y="686" on="0"/>
        <pt x="268" y="544" on="1"/>
        <pt x="268" y="465" on="0"/>
        <pt x="312" y="329" on="0"/>
        <pt x="348" y="288" on="1"/>
        <pt x="480" y="330" on="0"/>
        <pt x="629" y="520" on="0"/>
        <pt x="629" y="642" on="1"/>
        <pt x="629" y="735" on="0"/>
        <pt x="548" y="847" on="0"/>
      </contour>
    </TTGlyph>
    <TTGlyph name="uni13A8" xMin="115" yMin="0" xMax="1275" yMax="1324">
      <contour>
        <pt x="435" y="725" on="1"/>
        <pt x="770" y="929" on="1"/>
        <pt x="778" y="926" on="1"/>
        <pt x="817" y="767" on="0"/>
        <pt x="904" y="627" on="0"/>
        <pt x="973" y="627" on="1"/>
        <pt x="1040" y="627" on="0"/>
        <pt x="1128" y="737" on="0"/>
        <pt x="1153" y="877" on="1"/>
        <pt x="1275" y="865" on="1"/>
        <pt x="1253" y="665" on="0"/>
        <pt x="1099" y="483" on="0"/>
        <pt x="964" y="483" on="1"/>
        <pt x="859" y="483" on="0"/>
        <pt x="725" y="607" on="0"/>
        <pt x="687" y="726" on="1"/>
        <pt x="435" y="577" on="1"/>
        <pt x="435" y="120" on="1"/>
        <pt x="585" y="105" on="1"/>
        <pt x="585" y="0" on="1"/>
        <pt x="115" y="0" on="1"/>
        <pt x="115" y="105" on="1"/>
        <pt x="267" y="120" on="1"/>
        <pt x="267" y="1204" on="1"/>
        <pt x="115" y="1219" on="1"/>
        <pt x="115" y="1324" on="1"/>
        <pt x="585" y="1324" on="1"/>
        <pt x="585" y="1219" on="1"/>
        <pt x="435" y="1204" on="1"/>
      </contour>
    </TTGlyph>
    <TTGlyph name="uni13A9" xMin="50" yMin="-20" xMax="1348" yMax="1324">
      <contour>
        <pt x="1069" y="1204" on="1"/>
        <pt x="908" y="1219" on="1"/>
        <pt x="908" y="1324" on="1"/>
        <pt x="1348" y="1324" on="1"/>
        <pt x="1348" y="1219" on="1"/>
        <pt x="1238" y="1204" on="1"/>
        <pt x="877" y="459" on="1"/>
        <pt x="835" y="372" on="0"/>
        <pt x="746" y="201" on="0"/>
        <pt x="632" y="65" on="0"/>
        <pt x="483" y="-20" on="0"/>
        <pt x="381" y="-20" on="1"/>
        <pt x="296" y="-20" on="0"/>
        <pt x="194" y="58" on="0"/>
        <pt x="194" y="124" on="1"/>
        <pt x="194" y="178" on="0"/>
        <pt x="259" y="238" on="0"/>
        <pt x="309" y="238" on="1"/>
        <pt x="348" y="238" on="0"/>
        <pt x="402" y="188" on="0"/>
        <pt x="402" y="147" on="1"/>
        <pt x="402" y="118" on="0"/>
        <pt x="390" y="106" on="1"/>
        <pt x="400" y="104" on="1"/>
        <pt x="410" y="104" on="1"/>
        <pt x="461" y="104" on="0"/>
        <pt x="573" y="202" on="0"/>
        <pt x="631" y="304" on="1"/>
        <pt x="174" y="1204" on="1"/>
        <pt x="50" y="1219" on="1"/>
        <pt x="50" y="1324" on="1"/>
        <pt x="529" y="1324" on="1"/>
        <pt x="529" y="1219" on="1"/>
        <pt x="371" y="1204" on="1"/>
        <pt x="729" y="459" on="1"/>
      </contour>
    </TTGlyph>
    <TTGlyph name="uni13AA" xMin="30" yMin="0" xMax="1385" yMax="1324">
      <contour>
        <pt x="962" y="407" on="1"/>
        <pt x="444" y="407" on="1"/>
        <pt x="344" y="120" on="1"/>
        <pt x="506" y="105" on="1"/>
        <pt x="506" y="0" on="1"/>
        <pt x="30" y="0" on="1"/>
        <pt x="30" y="105" on="1"/>
        <pt x="179" y="120" on="1"/>
        <pt x="621" y="1324" on="1"/>
        <pt x="824" y="1324" on="1"/>
        <pt x="1235" y="120" on="1"/>
        <pt x="1385" y="105" on="1"/>
        <pt x="1385" y="0" on="1"/>
        <pt x="890" y="0" on="1"/>
        <pt x="890" y="105" on="1"/>
        <pt x="1052" y="120" on="1"/>
      </contour>
      <contour>
        <pt x="489" y="537" on="1"/>
        <pt x="921" y="537" on="1"/>
        <pt x="751" y="1077" on="0"/>
        <pt x="718" y="1204" on="1"/>
        <pt x="714" y="1204" on="1"/>
        <pt x="678" y="1081" on="0"/>
      </contour>
    </TTGlyph>
    <TTGlyph name="uni13AB" xMin="90" yMin="-20" xMax="1044" yMax="1324">
      <contour>
        <pt x="564" y="1219" on="1"/>
        <pt x="564" y="1324" on="1"/>
        <pt x="1044" y="1324" on="1"/>
        <pt x="1044" y="1219" on="1"/>
        <pt x="894" y="1204" on="1"/>
        <pt x="894" y="496" on="1"/>
        <pt x="894" y="244" on="0"/>
        <pt x="677" y="-20" on="0"/>
        <pt x="466" y="-20" on="1"/>
        <pt x="357" y="-20" on="0"/>
        <pt x="184" y="50" on="0"/>
        <pt x="90" y="175" on="0"/>
        <pt x="90" y="249" on="1"/>
        <pt x="90" y="318" on="0"/>
        <pt x="153" y="399" on="0"/>
        <pt x="207" y="399" on="1"/>
        <pt x="256" y="399" on="0"/>
        <pt x="311" y="347" on="0"/>
        <pt x="311" y="306" on="1"/>
        <pt x="311" y="237" on="0"/>
        <pt x="253" y="212" on="1"/>
        <pt x="296" y="115" on="0"/>
        <pt x="458" y="115" on="1"/>
        <pt x="595" y="115" on="0"/>
        <pt x="726" y="301" on="0"/>
        <pt x="726" y="485" on="1"/>
        <pt x="726" y="1204" on="1"/>
      </contour>
    </TTGlyph>
    <TTGlyph name="uni13AC" xMin="115" yMin="0" xMax="1181" yMax="1324">
      <contour>
        <pt x="1181" y="0" on="1"/>
        <pt x="115" y="0" on="1"/>
        <pt x="115" y="105" on="1"/>
        <pt x="266" y="120" on="1"/>
        <pt x="266" y="1204" on="1"/>
        <pt x="115" y="1219" on="1"/>
        <pt x="115" y="1324" on="1"/>
        <pt x="1164" y="1324" on="1"/>
        <pt x="1164" y="1004" on="1"/>
        <pt x="1030" y="1004" on="1"/>
        <pt x="1020" y="1194" on="1"/>
        <pt x="436" y="1194" on="1"/>
        <pt x="436" y="745" on="1"/>
        <pt x="744" y="745" on="1"/>
        <pt x="753" y="883" on="1"/>
        <pt x="873" y="883" on="1"/>
        <pt x="873" y="480" on="1"/>
        <pt x="753" y="480" on="1"/>
        <pt x="744" y="618" on="1"/>
        <pt x="436" y="618" on="1"/>
        <pt x="436" y="130" on="1"/>
        <pt x="1037" y="130" on="1"/>
        <pt x="1047" y="320" on="1"/>
        <pt x="1181" y="320" on="1"/>
      </contour>
    </TTGlyph>
    <TTGlyph name="uni13AD" xMin="30" yMin="0" xMax="1772" yMax="1324">
      <contour>
        <pt x="1112" y="0" on="1"/>
        <pt x="930" y="0" on="1"/>
        <pt x="930" y="672" on="1"/>
        <pt x="706" y="530" on="1"/>
        <pt x="688" y="390" on="0"/>
        <pt x="506" y="226" on="0"/>
        <pt x="368" y="226" on="1"/>
        <pt x="213" y="226" on="0"/>
        <pt x="30" y="427" on="0"/>
        <pt x="30" y="594" on="1"/>
        <pt x="30" y="758" on="0"/>
        <pt x="215" y="963" on="0"/>
        <pt x="372" y="963" on="1"/>
        <pt x="504" y="963" on="0"/>
        <pt x="679" y="812" on="0"/>
        <pt x="703" y="676" on="1"/>
        <pt x="930" y="814" on="1"/>
        <pt x="930" y="1204" on="1"/>
        <pt x="748" y="1219" on="1"/>
        <pt x="748" y="1324" on="1"/>
        <pt x="1248" y="1324" on="1"/>
        <pt x="1248" y="1219" on="1"/>
        <pt x="1088" y="1204" on="1"/>
        <pt x="1088" y="766" on="1"/>
        <pt x="1088" y="694" on="0"/>
        <pt x="1072" y="302" on="0"/>
        <pt x="1061" y="129" on="1"/>
        <pt x="1069" y="129" on="1"/>
        <pt x="1137" y="275" on="0"/>
        <pt x="1305" y="541" on="1"/>
        <pt x="1453" y="775" on="1"/>
        <pt x="1303" y="789" on="1"/>
        <pt x="1303" y="894" on="1"/>
        <pt x="1772" y="894" on="1"/>
        <pt x="1772" y="789" on="1"/>
        <pt x="1620" y="775" on="1"/>
      </contour>
      <contour>
        <pt x="563" y="594" on="1"/>
        <pt x="563" y="713" on="0"/>
        <pt x="462" y="839" on="0"/>
        <pt x="372" y="839" on="1"/>
        <pt x="280" y="839" on="0"/>
        <pt x="178" y="712" on="0"/>
        <pt x="178" y="594" on="1"/>
        <pt x="178" y="477" on="0"/>
        <pt x="278" y="350" on="0"/>
        <pt x="368" y="350" on="1"/>
        <pt x="461" y="350" on="0"/>
        <pt x="563" y="481" on="0"/>
      </contour>
    </TTGlyph>
    <TTGlyph name="uni13AE" xMin="130" yMin="0" xMax="1083" yMax="1450">
      <contour>
        <pt x="450" y="120" on="1"/>
        <pt x="602" y="105" on="1"/>
        <pt x="602" y="0" on="1"/>
        <pt x="130" y="0" on="1"/>
        <pt x="130" y="105" on="1"/>
        <pt x="282" y="120" on="1"/>
        <pt x="282" y="898" on="1"/>
        <pt x="130" y="913" on="1"/>
        <pt x="130" y="1018" on="1"/>
        <pt x="589" y="1018" on="1"/>
        <pt x="589" y="913" on="1"/>
        <pt x="450" y="898" on="1"/>
        <pt x="450" y="702" on="1"/>
        <pt x="545" y="702" on="1"/>
        <pt x="739" y="702" on="0"/>
        <pt x="925" y="861" on="0"/>
        <pt x="925" y="1022" on="1"/>
        <pt x="925" y="1162" on="0"/>
        <pt x="732" y="1310" on="0"/>
        <pt x="554" y="1310" on="1"/>
        <pt x="468" y="1310" on="0"/>
        <pt x="292" y="1273" on="0"/>
        <pt x="227" y="1242" on="1"/>
        <pt x="174" y="1354" on="1"/>
        <pt x="239" y="1399" on="0"/>
        <pt x="449" y="1450" on="0"/>
        <pt x="562" y="1450" on="1"/>
        <pt x="796" y="1450" on="0"/>
        <pt x="1083" y="1221" on="0"/>
        <pt x="1083" y="1029" on="1"/>
        <pt x="1083" y="809" on="0"/>
        <pt x="813" y="572" on="0"/>
        <pt x="550" y="572" on="1"/>
        <pt x="450" y="572" on="1"/>
      </contour>
    </TTGlyph>
    <TTGlyph name="uni13AF" xMin="50" yMin="-10" xMax="1301" yMax="1344">
      <contour>
        <pt x="866" y="1344" on="1"/>
        <pt x="1012" y="1344" on="0"/>
        <pt x="1207" y="1202" on="0"/>
        <pt x="1301" y="901" on="0"/>
        <pt x="1301" y="627" on="1"/>
        <pt x="1301" y="317" on="0"/>
        <pt x="1133" y="-10" on="0"/>
        <pt x="978" y="-10" on="1"/>
        <pt x="913" y="-10" on="0"/>
        <pt x="833" y="53" on="0"/>
        <pt x="833" y="106" on="1"/>
        <pt x="833" y="152" on="0"/>
        <pt x="889" y="210" on="0"/>
        <pt x="931" y="210" on="1"/>
        <pt x="963" y="210" on="0"/>
        <pt x="1017" y="169" on="0"/>
        <pt x="1024" y="121" on="1"/>
        <pt x="1073" y="132" on="0"/>
        <pt x="1129" y="365" on="0"/>
        <pt x="1132" y="552" on="1"/>
        <pt x="561" y="552" on="1"/>
        <pt x="535" y="359" on="0"/>
        <pt x="457" y="138" on="0"/>
        <pt x="367" y="39" on="0"/>
        <pt x="259" y="-10" on="0"/>
        <pt x="196" y="-10" on="1"/>
        <pt x="129" y="-10" on="0"/>
        <pt x="50" y="53" on="0"/>
        <pt x="50" y="106" on="1"/>
        <pt x="50" y="151" on="0"/>
        <pt x="105" y="212" on="0"/>
        <pt x="149" y="212" on="1"/>
        <pt x="183" y="212" on="0"/>
        <pt x="236" y="168" on="0"/>
        <pt x="241" y="120" on="1"/>
        <pt x="312" y="138" on="0"/>
        <pt x="396" y="460" on="0"/>
        <pt x="423" y="824" on="1"/>
        <pt x="458" y="1344" on="0"/>
      </contour>
      <contour>
        <pt x="574" y="682" on="1"/>
        <pt x="1133" y="682" on="1"/>
        <pt x="1130" y="894" on="0"/>
        <pt x="1076" y="1107" on="0"/>
        <pt x="960" y="1208" on="0"/>
        <pt x="860" y="1208" on="1"/>
        <pt x="770" y="1208" on="0"/>
        <pt x="656" y="1123" on="0"/>
        <pt x="595" y="954" on="0"/>
        <pt x="582" y="781" on="1"/>
      </contour>
    </TTGlyph>
    <TTGlyph name="uni13B0" xMin="115" yMin="0" xMax="996" yMax="1324">
      <contour>
        <pt x="586" y="1324" on="1"/>
        <pt x="586" y="1219" on="1"/>
        <pt x="436" y="1204" on="1"/>
        <pt x="436" y="749" on="1"/>
        <pt x="857" y="749" on="1"/>
        <pt x="866" y="920" on="1"/>
        <pt x="996" y="920" on="1"/>
        <pt x="996" y="446" on="1"/>
        <pt x="866" y="446" on="1"/>
        <pt x="857" y="611" on="1"/>
        <pt x="436" y="611" on="1"/>
        <pt x="436" y="120" on="1"/>
        <pt x="586" y="105" on="1"/>
        <pt x="586" y="0" on="1"/>
        <pt x="115" y="0" on="1"/>
        <pt x="115" y="105" on="1"/>
        <pt x="266" y="120" on="1"/>
        <pt x="266" y="1204" on="1"/>
        <pt x="115" y="1219" on="1"/>
        <pt x="115" y="1324" on="1"/>
      </contour>
    </TTGlyph>
    <TTGlyph name="uni13B1" xMin="115" yMin="0" xMax="1130" yMax="1324">
      <contour>
        <pt x="1130" y="1324" on="1"/>
        <pt x="1130" y="960" on="1"/>
        <pt x="994" y="960" on="1"/>
        <pt x="983" y="1194" on="1"/>
        <pt x="437" y="1194" on="1"/>
        <pt x="437" y="120" on="1"/>
        <pt x="610" y="105" on="1"/>
        <pt x="610" y="0" on="1"/>
        <pt x="115" y="0" on="1"/>
        <pt x="115" y="105" on="1"/>
        <pt x="267" y="120" on="1"/>
        <pt x="267" y="1204" on="1"/>
        <pt x="115" y="1219" on="1"/>
        <pt x="115" y="1324" on="1"/>
      </contour>
    </TTGlyph>
    <TTGlyph name="uni13B2" xMin="71" yMin="-20" xMax="1643" yMax="1344">
      <contour>
        <pt x="1114" y="118" on="1"/>
        <pt x="1227" y="118" on="0"/>
        <pt x="1348" y="242" on="0"/>
        <pt x="1360" y="389" on="1"/>
        <pt x="1194" y="403" on="1"/>
        <pt x="1194" y="508" on="1"/>
        <pt x="1643" y="508" on="1"/>
        <pt x="1643" y="403" on="1"/>
        <pt x="1506" y="389" on="1"/>
        <pt x="1490" y="194" on="0"/>
        <pt x="1286" y="-20" on="0"/>
        <pt x="1116" y="-20" on="1"/>
        <pt x="933" y="-20" on="0"/>
        <pt x="771" y="130" on="1"/>
        <pt x="699" y="57" on="0"/>
        <pt x="531" y="-20" on="0"/>
        <pt x="444" y="-20" on="1"/>
        <pt x="264" y="-20" on="0"/>
        <pt x="71" y="187" on="0"/>
        <pt x="71" y="375" on="1"/>
        <pt x="71" y="438" on="0"/>
        <pt x="78" y="479" on="1"/>
        <pt x="219" y="479" on="1"/>
        <pt x="217" y="457" on="1"/>
        <pt x="217" y="441" on="1"/>
        <pt x="217" y="282" on="0"/>
        <pt x="334" y="118" on="0"/>
        <pt x="445" y="118" on="1"/>
        <pt x="562" y="118" on="0"/>
        <pt x="670" y="232" on="1"/>
        <pt x="546" y="378" on="0"/>
        <pt x="405" y="728" on="0"/>
        <pt x="405" y="899" on="1"/>
        <pt x="405" y="1102" on="0"/>
        <pt x="607" y="1344" on="0"/>
        <pt x="780" y="1344" on="1"/>
        <pt x="945" y="1344" on="0"/>
        <pt x="1135" y="1120" on="0"/>
        <pt x="1135" y="931" on="1"/>
        <pt x="1135" y="766" on="0"/>
        <pt x="987" y="381" on="0"/>
        <pt x="870" y="240" on="1"/>
        <pt x="985" y="118" on="0"/>
      </contour>
      <contour>
        <pt x="571" y="921" on="1"/>
        <pt x="571" y="773" on="0"/>
        <pt x="677" y="461" on="0"/>
        <pt x="774" y="333" on="1"/>
        <pt x="861" y="462" on="0"/>
        <pt x="972" y="788" on="0"/>
        <pt x="972" y="921" on="1"/>
        <pt x="972" y="1061" on="0"/>
        <pt x="874" y="1208" on="0"/>
        <pt x="779" y="1208" on="1"/>
        <pt x="683" y="1208" on="0"/>
        <pt x="571" y="1049" on="0"/>
      </contour>
    </TTGlyph>
    <TTGlyph name="uni13B3" xMin="76" yMin="0" xMax="2043" yMax="1324">
      <contour>
        <pt x="822" y="1218" on="1"/>
        <pt x="822" y="1324" on="1"/>
        <pt x="1300" y="1324" on="1"/>
        <pt x="1300" y="1219" on="1"/>
        <pt x="1146" y="1204" on="1"/>
        <pt x="1321" y="513" on="1"/>
        <pt x="1358" y="371" on="0"/>
        <pt x="1407" y="140" on="1"/>
        <pt x="1417" y="140" on="1"/>
        <pt x="1446" y="252" on="0"/>
        <pt x="1509" y="478" on="0"/>
        <pt x="1728" y="1204" on="1"/>
        <pt x="1571" y="1219" on="1"/>
        <pt x="1571" y="1324" on="1"/>
        <pt x="2043" y="1324" on="1"/>
        <pt x="2043" y="1219" on="1"/>
        <pt x="1893" y="1204" on="1"/>
        <pt x="1505" y="0" on="1"/>
        <pt x="1303" y="0" on="1"/>
        <pt x="1138" y="625" on="1"/>
        <pt x="1102" y="759" on="0"/>
        <pt x="1063" y="967" on="1"/>
        <pt x="1053" y="967" on="1"/>
        <pt x="1043" y="911" on="0"/>
        <pt x="996" y="741" on="0"/>
        <pt x="927" y="523" on="0"/>
        <pt x="762" y="0" on="1"/>
        <pt x="560" y="0" on="1"/>
        <pt x="227" y="1204" on="1"/>
        <pt x="76" y="1219" on="1"/>
        <pt x="76" y="1324" on="1"/>
        <pt x="558" y="1324" on="1"/>
        <pt x="558" y="1219" on="1"/>
        <pt x="409" y="1204" on="1"/>
        <pt x="585" y="512" on="1"/>
        <pt x="643" y="280" on="0"/>
        <pt x="671" y="143" on="1"/>
        <pt x="681" y="143" on="1"/>
        <pt x="704" y="235" on="0"/>
        <pt x="761" y="440" on="0"/>
        <pt x="980" y="1178" on="1"/>
        <pt x="974" y="1204" on="1"/>
      </contour>
    </TTGlyph>
    <TTGlyph name="uni13B4" xMin="70" yMin="-20" xMax="1377" yMax="1344">
      <contour>
        <pt x="702" y="952" on="1"/>
        <pt x="702" y="1136" on="0"/>
        <pt x="887" y="1344" on="0"/>
        <pt x="1053" y="1344" on="1"/>
        <pt x="1147" y="1344" on="0"/>
        <pt x="1296" y="1266" on="0"/>
        <pt x="1377" y="1131" on="0"/>
        <pt x="1377" y="1054" on="1"/>
        <pt x="1377" y="973" on="0"/>
        <pt x="1315" y="891" on="0"/>
        <pt x="1258" y="891" on="1"/>
        <pt x="1211" y="891" on="0"/>
        <pt x="1156" y="945" on="0"/>
        <pt x="1156" y="986" on="1"/>
        <pt x="1156" y="1053" on="0"/>
        <pt x="1223" y="1085" on="1"/>
        <pt x="1218" y="1146" on="0"/>
        <pt x="1130" y="1218" on="0"/>
        <pt x="1055" y="1218" on="1"/>
        <pt x="956" y="1218" on="0"/>
        <pt x="862" y="1090" on="0"/>
        <pt x="862" y="975" on="1"/>
        <pt x="869" y="536" on="1"/>
        <pt x="869" y="263" on="0"/>
        <pt x="650" y="-20" on="0"/>
        <pt x="436" y="-20" on="1"/>
        <pt x="266" y="-20" on="0"/>
        <pt x="70" y="218" on="0"/>
        <pt x="70" y="415" on="1"/>
        <pt x="70" y="616" on="0"/>
        <pt x="285" y="873" on="0"/>
        <pt x="461" y="873" on="1"/>
        <pt x="549" y="873" on="0"/>
        <pt x="670" y="802" on="0"/>
        <pt x="701" y="742" on="1"/>
        <pt x="711" y="742" on="1"/>
        <pt x="702" y="828" on="0"/>
      </contour>
      <contour>
        <pt x="462" y="110" on="1"/>
        <pt x="576" y="110" on="0"/>
        <pt x="709" y="299" on="0"/>
        <pt x="709" y="462" on="1"/>
        <pt x="709" y="588" on="0"/>
        <pt x="579" y="741" on="0"/>
        <pt x="476" y="741" on="1"/>
        <pt x="402" y="741" on="0"/>
        <pt x="295" y="666" on="0"/>
        <pt x="236" y="516" on="0"/>
        <pt x="236" y="420" on="1"/>
        <pt x="236" y="272" on="0"/>
        <pt x="355" y="110" on="0"/>
      </contour>
    </TTGlyph>
    <TTGlyph name="uni13B5" xMin="50" yMin="0" xMax="1125" yMax="1344">
      <contour>
        <pt x="967" y="933" on="1"/>
        <pt x="967" y="1061" on="0"/>
        <pt x="813" y="1208" on="0"/>
        <pt x="677" y="1208" on="1"/>
        <pt x="523" y="1208" on="0"/>
        <pt x="369" y="1005" on="0"/>
        <pt x="369" y="819" on="1"/>
        <pt x="369" y="120" on="1"/>
        <pt x="522" y="105" on="1"/>
        <pt x="522" y="0" on="1"/>
        <pt x="50" y="0" on="1"/>
        <pt x="50" y="105" on="1"/>
        <pt x="201" y="120" on="1"/>
        <pt x="201" y="813" on="1"/>
        <pt x="201" y="1071" on="0"/>
        <pt x="447" y="1344" on="0"/>
        <pt x="680" y="1344" on="1"/>
        <pt x="874" y="1344" on="0"/>
        <pt x="1125" y="1118" on="0"/>
        <pt x="1125" y="940" on="1"/>
        <pt x="1125" y="770" on="0"/>
        <pt x="950" y="539" on="0"/>
        <pt x="812" y="539" on="1"/>
        <pt x="755" y="539" on="0"/>
        <pt x="686" y="596" on="0"/>
        <pt x="686" y="644" on="1"/>
        <pt x="686" y="684" on="0"/>
        <pt x="736" y="744" on="0"/>
        <pt x="784" y="744" on="1"/>
        <pt x="810" y="744" on="0"/>
        <pt x="858" y="714" on="0"/>
        <pt x="869" y="682" on="1"/>
        <pt x="916" y="708" on="0"/>
        <pt x="967" y="838" on="0"/>
      </contour>
    </TTGlyph>
    <TTGlyph name="uni13B6" xMin="115" yMin="-20" xMax="1214" yMax="1344">
      <contour>
        <pt x="1214" y="383" on="1"/>
        <pt x="1214" y="267" on="0"/>
        <pt x="1090" y="83" on="0"/>
        <pt x="863" y="-20" on="0"/>
        <pt x="716" y="-20" on="1"/>
        <pt x="430" y="-20" on="0"/>
        <pt x="115" y="328" on="0"/>
        <pt x="115" y="649" on="1"/>
        <pt x="115" y="860" on="0"/>
        <pt x="262" y="1174" on="0"/>
        <pt x="546" y="1344" on="0"/>
        <pt x="741" y="1344" on="1"/>
        <pt x="864" y="1344" on="0"/>
        <pt x="1118" y="1256" on="0"/>
        <pt x="1177" y="1188" on="1"/>
        <pt x="1177" y="959" on="1"/>
        <pt x="1041" y="959" on="1"/>
        <pt x="1031" y="1124" on="1"/>
        <pt x="988" y="1160" on="0"/>
        <pt x="827" y="1204" on="0"/>
        <pt x="741" y="1204" on="1"/>
        <pt x="519" y="1204" on="0"/>
        <pt x="289" y="923" on="0"/>
        <pt x="289" y="654" on="1"/>
        <pt x="289" y="393" on="0"/>
        <pt x="513" y="120" on="0"/>
        <pt x="725" y="120" on="1"/>
        <pt x="879" y="120" on="0"/>
        <pt x="1065" y="257" on="0"/>
        <pt x="1065" y="373" on="1"/>
        <pt x="1065" y="476" on="0"/>
        <pt x="972" y="581" on="0"/>
        <pt x="858" y="581" on="1"/>
        <pt x="853" y="409" on="1"/>
        <pt x="723" y="409" on="1"/>
        <pt x="723" y="867" on="1"/>
        <pt x="853" y="867" on="1"/>
        <pt x="858" y="708" on="1"/>
        <pt x="1036" y="703" on="0"/>
        <pt x="1214" y="543" on="0"/>
      </contour>
    </TTGlyph>
    <TTGlyph name="uni13B7" xMin="115" yMin="0" xMax="1707" yMax="1324">
      <contour>
        <pt x="814" y="0" on="1"/>
        <pt x="432" y="1186" on="1"/>
        <pt x="407" y="1186" on="1"/>
        <pt x="418" y="994" on="0"/>
        <pt x="418" y="653" on="1"/>
        <pt x="418" y="120" on="1"/>
        <pt x="546" y="105" on="1"/>
        <pt x="546" y="0" on="1"/>
        <pt x="115" y="0" on="1"/>
        <pt x="115" y="105" on="1"/>
        <pt x="265" y="120" on="1"/>
        <pt x="265" y="1204" on="1"/>
        <pt x="115" y="1219" on="1"/>
        <pt x="115" y="1324" on="1"/>
        <pt x="575" y="1324" on="1"/>
        <pt x="812" y="505" on="1"/>
        <pt x="882" y="259" on="0"/>
        <pt x="901" y="168" on="1"/>
        <pt x="909" y="168" on="1"/>
        <pt x="920" y="211" on="0"/>
        <pt x="959" y="346" on="0"/>
        <pt x="1261" y="1324" on="1"/>
        <pt x="1707" y="1324" on="1"/>
        <pt x="1707" y="1219" on="1"/>
        <pt x="1557" y="1204" on="1"/>
        <pt x="1557" y="120" on="1"/>
        <pt x="1707" y="105" on="1"/>
        <pt x="1707" y="0" on="1"/>
        <pt x="1261" y="0" on="1"/>
        <pt x="1261" y="105" on="1"/>
        <pt x="1391" y="120" on="1"/>
        <pt x="1391" y="656" on="1"/>
        <pt x="1391" y="945" on="0"/>
        <pt x="1395" y="1185" on="1"/>
        <pt x="1370" y="1185" on="1"/>
        <pt x="984" y="0" on="1"/>
      </contour>
    </TTGlyph>
    <TTGlyph name="uni13B8" xMin="60" yMin="0" xMax="1364" yMax="1344">
      <contour>
        <pt x="490" y="706" on="1"/>
        <pt x="509" y="605" on="0"/>
        <pt x="608" y="514" on="0"/>
        <pt x="701" y="514" on="1"/>
        <pt x="817" y="514" on="0"/>
        <pt x="999" y="616" on="0"/>
        <pt x="1045" y="702" on="1"/>
        <pt x="1045" y="780" on="1"/>
        <pt x="1045" y="1010" on="0"/>
        <pt x="878" y="1210" on="0"/>
        <pt x="709" y="1210" on="1"/>
        <pt x="652" y="1210" on="0"/>
        <pt x="546" y="1177" on="0"/>
        <pt x="524" y="1154" on="1"/>
        <pt x="577" y="1127" on="0"/>
        <pt x="577" y="1069" on="1"/>
        <pt x="577" y="1026" on="0"/>
        <pt x="522" y="975" on="0"/>
        <pt x="477" y="975" on="1"/>
        <pt x="425" y="975" on="0"/>
        <pt x="363" y="1035" on="0"/>
        <pt x="363" y="1089" on="1"/>
        <pt x="363" y="1166" on="0"/>
        <pt x="462" y="1281" on="0"/>
        <pt x="633" y="1344" on="0"/>
        <pt x="728" y="1344" on="1"/>
        <pt x="980" y="1344" on="0"/>
        <pt x="1213" y="1066" on="0"/>
        <pt x="1213" y="765" on="1"/>
        <pt x="1213" y="120" on="1"/>
        <pt x="1364" y="105" on="1"/>
        <pt x="1364" y="0" on="1"/>
        <pt x="881" y="0" on="1"/>
        <pt x="881" y="105" on="1"/>
        <pt x="1045" y="120" on="1"/>
        <pt x="1045" y="507" on="1"/>
        <pt x="909" y="375" on="0"/>
        <pt x="700" y="375" on="1"/>
        <pt x="573" y="375" on="0"/>
        <pt x="411" y="471" on="0"/>
        <pt x="369" y="572" on="1"/>
        <pt x="199" y="572" on="1"/>
        <pt x="190" y="397" on="1"/>
        <pt x="60" y="397" on="1"/>
        <pt x="60" y="871" on="1"/>
        <pt x="190" y="871" on="1"/>
        <pt x="199" y="706" on="1"/>
      </contour>
    </TTGlyph>
    <TTGlyph name="uni13B9" xMin="40" yMin="-15" xMax="1750" yMax="1324">
      <contour>
        <pt x="40" y="455" on="1"/>
        <pt x="48" y="549" on="0"/>
        <pt x="159" y="704" on="0"/>
        <pt x="344" y="790" on="0"/>
        <pt x="457" y="790" on="1"/>
        <pt x="532" y="785" on="1"/>
        <pt x="576" y="844" on="0"/>
        <pt x="606" y="993" on="0"/>
        <pt x="606" y="1076" on="1"/>
        <pt x="606" y="1208" on="1"/>
        <pt x="449" y="1213" on="1"/>
        <pt x="449" y="1324" on="1"/>
        <pt x="922" y="1324" on="1"/>
        <pt x="922" y="1213" on="1"/>
        <pt x="769" y="1208" on="1"/>
        <pt x="769" y="1040" on="1"/>
        <pt x="782" y="1000" on="0"/>
        <pt x="865" y="1000" on="1"/>
        <pt x="906" y="1000" on="0"/>
        <pt x="1010" y="1052" on="0"/>
        <pt x="1100" y="1123" on="1"/>
        <pt x="1199" y="1201" on="0"/>
        <pt x="1297" y="1257" on="0"/>
        <pt x="1398" y="1290" on="0"/>
        <pt x="1452" y="1290" on="1"/>
        <pt x="1586" y="1290" on="0"/>
        <pt x="1750" y="1141" on="0"/>
        <pt x="1750" y="1016" on="1"/>
        <pt x="1750" y="888" on="0"/>
        <pt x="1578" y="717" on="0"/>
        <pt x="1432" y="699" on="1"/>
        <pt x="1432" y="826" on="1"/>
        <pt x="1507" y="840" on="0"/>
        <pt x="1605" y="937" on="0"/>
        <pt x="1605" y="1003" on="1"/>
        <pt x="1605" y="1076" on="0"/>
        <pt x="1518" y="1145" on="0"/>
        <pt x="1449" y="1145" on="1"/>
        <pt x="1409" y="1145" on="0"/>
        <pt x="1335" y="1120" on="0"/>
        <pt x="1261" y="1075" on="0"/>
        <pt x="1174" y="1008" on="1"/>
        <pt x="1078" y="933" on="0"/>
        <pt x="993" y="884" on="0"/>
        <pt x="908" y="855" on="0"/>
        <pt x="865" y="855" on="1"/>
        <pt x="787" y="855" on="0"/>
        <pt x="745" y="897" on="1"/>
        <pt x="723" y="815" on="0"/>
        <pt x="679" y="751" on="1"/>
        <pt x="803" y="698" on="0"/>
        <pt x="938" y="498" on="0"/>
        <pt x="938" y="367" on="1"/>
        <pt x="938" y="191" on="0"/>
        <pt x="769" y="-15" on="0"/>
        <pt x="617" y="-15" on="1"/>
        <pt x="474" y="-15" on="0"/>
        <pt x="315" y="150" on="0"/>
        <pt x="315" y="294" on="1"/>
        <pt x="315" y="487" on="0"/>
        <pt x="444" y="663" on="1"/>
        <pt x="433" y="664" on="1"/>
        <pt x="422" y="664" on="1"/>
        <pt x="333" y="664" on="0"/>
        <pt x="191" y="549" on="0"/>
        <pt x="171" y="455" on="1"/>
      </contour>
      <contour>
        <pt x="785" y="367" on="1"/>
        <pt x="785" y="470" on="0"/>
        <pt x="682" y="614" on="0"/>
        <pt x="600" y="641" on="1"/>
        <pt x="525" y="550" on="0"/>
        <pt x="465" y="401" on="0"/>
        <pt x="465" y="316" on="1"/>
        <pt x="465" y="222" on="0"/>
        <pt x="545" y="117" on="0"/>
        <pt x="619" y="117" on="1"/>
        <pt x="697" y="117" on="0"/>
        <pt x="785" y="245" on="0"/>
      </contour>
    </TTGlyph>
    <TTGlyph name="uni13BA" xMin="115" yMin="-18" xMax="1737" yMax="1344">
      <contour>
        <pt x="1569" y="749" on="1"/>
        <pt x="1569" y="1323" on="1"/>
        <pt x="1737" y="1323" on="1"/>
        <pt x="1737" y="0" on="1"/>
        <pt x="1569" y="0" on="1"/>
        <pt x="1569" y="619" on="1"/>
        <pt x="1300" y="619" on="1"/>
        <pt x="1288" y="324" on="0"/>
        <pt x="975" y="-18" on="0"/>
        <pt x="710" y="-18" on="1"/>
        <pt x="425" y="-18" on="0"/>
        <pt x="115" y="335" on="0"/>
        <pt x="115" y="664" on="1"/>
        <pt x="115" y="987" on="0"/>
        <pt x="428" y="1344" on="0"/>
        <pt x="712" y="1344" on="1"/>
        <pt x="968" y="1344" on="0"/>
        <pt x="1274" y="1034" on="0"/>
        <pt x="1299" y="749" on="1"/>
      </contour>
      <contour>
        <pt x="289" y="663" on="1"/>
        <pt x="289" y="400" on="0"/>
        <pt x="506" y="121" on="0"/>
        <pt x="710" y="121" on="1"/>
        <pt x="916" y="121" on="0"/>
        <pt x="1131" y="396" on="0"/>
        <pt x="1131" y="663" on="1"/>
        <pt x="1131" y="927" on="0"/>
        <pt x="917" y="1205" on="0"/>
        <pt x="712" y="1205" on="1"/>
        <pt x="501" y="1205" on="0"/>
        <pt x="289" y="925" on="0"/>
      </contour>
    </TTGlyph>
    <TTGlyph name="uni13BB" xMin="115" yMin="0" xMax="1427" yMax="1324">
      <contour>
        <pt x="1427" y="1324" on="1"/>
        <pt x="1427" y="1219" on="1"/>
        <pt x="1277" y="1204" on="1"/>
        <pt x="1277" y="120" on="1"/>
        <pt x="1427" y="105" on="1"/>
        <pt x="1427" y="0" on="1"/>
        <pt x="957" y="0" on="1"/>
        <pt x="957" y="105" on="1"/>
        <pt x="1107" y="120" on="1"/>
        <pt x="1107" y="619" on="1"/>
        <pt x="436" y="619" on="1"/>
        <pt x="436" y="120" on="1"/>
        <pt x="587" y="105" on="1"/>
        <pt x="587" y="0" on="1"/>
        <pt x="115" y="0" on="1"/>
        <pt x="115" y="105" on="1"/>
        <pt x="266" y="120" on="1"/>
        <pt x="266" y="1204" on="1"/>
        <pt x="115" y="1219" on="1"/>
        <pt x="115" y="1324" on="1"/>
        <pt x="587" y="1324" on="1"/>
        <pt x="587" y="1219" on="1"/>
        <pt x="436" y="1204" on="1"/>
        <pt x="436" y="749" on="1"/>
        <pt x="1107" y="749" on="1"/>
        <pt x="1107" y="1204" on="1"/>
        <pt x="957" y="1219" on="1"/>
        <pt x="957" y="1324" on="1"/>
      </contour>
    </TTGlyph>
    <TTGlyph name="uni13BC" xMin="29" yMin="-20" xMax="1420" yMax="1324">
      <contour>
        <pt x="334" y="634" on="1"/>
        <pt x="235" y="634" on="0"/>
        <pt x="75" y="722" on="0"/>
        <pt x="29" y="802" on="1"/>
        <pt x="115" y="886" on="1"/>
        <pt x="175" y="828" on="0"/>
        <pt x="275" y="782" on="0"/>
        <pt x="341" y="782" on="1"/>
        <pt x="382" y="782" on="0"/>
        <pt x="468" y="810" on="0"/>
        <pt x="561" y="869" on="0"/>
        <pt x="725" y="1013" on="0"/>
        <pt x="728" y="1029" on="1"/>
        <pt x="728" y="1204" on="1"/>
        <pt x="571" y="1219" on="1"/>
        <pt x="571" y="1324" on="1"/>
        <pt x="1044" y="1324" on="1"/>
        <pt x="1044" y="1219" on="1"/>
        <pt x="888" y="1204" on="1"/>
        <pt x="888" y="1032" on="1"/>
        <pt x="1154" y="1004" on="0"/>
        <pt x="1420" y="749" on="0"/>
        <pt x="1420" y="498" on="1"/>
        <pt x="1420" y="355" on="0"/>
        <pt x="1282" y="116" on="0"/>
        <pt x="1035" y="-20" on="0"/>
        <pt x="885" y="-20" on="1"/>
        <pt x="738" y="-20" on="0"/>
        <pt x="527" y="79" on="0"/>
        <pt x="409" y="283" on="0"/>
        <pt x="409" y="419" on="1"/>
        <pt x="562" y="419" on="1"/>
        <pt x="562" y="332" on="0"/>
        <pt x="645" y="190" on="0"/>
        <pt x="788" y="120" on="0"/>
        <pt x="885" y="120" on="1"/>
        <pt x="1051" y="120" on="0"/>
        <pt x="1252" y="336" on="0"/>
        <pt x="1252" y="513" on="1"/>
        <pt x="1252" y="703" on="0"/>
        <pt x="1046" y="895" on="0"/>
        <pt x="851" y="899" on="1"/>
        <pt x="810" y="895" on="0"/>
        <pt x="717" y="819" on="1"/>
        <pt x="595" y="716" on="0"/>
        <pt x="416" y="634" on="0"/>
      </contour>
    </TTGlyph>
    <TTGlyph name="uni13BD" xMin="20" yMin="-20" xMax="1450" yMax="1324">
      <contour>
        <pt x="459" y="-20" on="1"/>
        <pt x="313" y="-20" on="0"/>
        <pt x="154" y="146" on="0"/>
        <pt x="148" y="304" on="1"/>
        <pt x="20" y="319" on="1"/>
        <pt x="20" y="424" on="1"/>
        <pt x="413" y="424" on="1"/>
        <pt x="413" y="319" on="1"/>
        <pt x="306" y="304" on="1"/>
        <pt x="306" y="215" on="0"/>
        <pt x="385" y="115" on="0"/>
        <pt x="463" y="115" on="1"/>
        <pt x="526" y="115" on="0"/>
        <pt x="644" y="212" on="0"/>
        <pt x="708" y="321" on="1"/>
        <pt x="128" y="1317" on="1"/>
        <pt x="128" y="1324" on="1"/>
        <pt x="324" y="1324" on="1"/>
        <pt x="802" y="485" on="1"/>
        <pt x="1147" y="1204" on="1"/>
        <pt x="975" y="1219" on="1"/>
        <pt x="975" y="1324" on="1"/>
        <pt x="1450" y="1324" on="1"/>
        <pt x="1450" y="1219" on="1"/>
        <pt x="1317" y="1204" on="1"/>
        <pt x="906" y="371" on="1"/>
        <pt x="806" y="166" on="0"/>
        <pt x="594" y="-20" on="0"/>
      </contour>
    </TTGlyph>
    <TTGlyph name="uni13BE" xMin="115" yMin="-18" xMax="1317" yMax="1344">
      <contour>
        <pt x="1317" y="663" on="1"/>
        <pt x="1317" y="352" on="0"/>
        <pt x="996" y="-18" on="0"/>
        <pt x="716" y="-18" on="1"/>
        <pt x="426" y="-18" on="0"/>
        <pt x="115" y="334" on="0"/>
        <pt x="115" y="664" on="1"/>
        <pt x="115" y="984" on="0"/>
        <pt x="435" y="1344" on="0"/>
        <pt x="719" y="1344" on="1"/>
        <pt x="1002" y="1344" on="0"/>
        <pt x="1317" y="986" on="0"/>
      </contour>
      <contour>
        <pt x="716" y="121" on="1"/>
        <pt x="917" y="121" on="0"/>
        <pt x="1133" y="379" on="0"/>
        <pt x="1144" y="619" on="1"/>
        <pt x="287" y="619" on="1"/>
        <pt x="297" y="378" on="0"/>
        <pt x="516" y="121" on="0"/>
      </contour>
      <contour>
        <pt x="719" y="1205" on="1"/>
        <pt x="528" y="1205" on="0"/>
        <pt x="312" y="977" on="0"/>
        <pt x="290" y="762" on="1"/>
        <pt x="1141" y="762" on="1"/>
        <pt x="1118" y="979" on="0"/>
        <pt x="902" y="1205" on="0"/>
      </contour>
    </TTGlyph>
    <TTGlyph name="uni13BF" xMin="50" yMin="-143" xMax="1391" yMax="1324">
      <contour>
        <pt x="1391" y="443" on="1"/>
        <pt x="1141" y="443" on="1"/>
        <pt x="1141" y="-143" on="1"/>
        <pt x="992" y="-143" on="1"/>
        <pt x="992" y="133" on="1"/>
        <pt x="984" y="133" on="1"/>
        <pt x="926" y="53" on="0"/>
        <pt x="771" y="-20" on="0"/>
        <pt x="668" y="-20" on="1"/>
        <pt x="492" y="-20" on="0"/>
        <pt x="300" y="181" on="0"/>
        <pt x="300" y="391" on="1"/>
        <pt x="300" y="940" on="1"/>
        <pt x="50" y="940" on="1"/>
        <pt x="50" y="1070" on="1"/>
        <pt x="304" y="1070" on="1"/>
        <pt x="310" y="1324" on="1"/>
        <pt x="468" y="1324" on="1"/>
        <pt x="468" y="1070" on="1"/>
        <pt x="788" y="1070" on="1"/>
        <pt x="788" y="940" on="1"/>
        <pt x="468" y="940" on="1"/>
        <pt x="468" y="397" on="1"/>
        <pt x="468" y="262" on="0"/>
        <pt x="580" y="120" on="0"/>
        <pt x="688" y="120" on="1"/>
        <pt x="992" y="120" on="0"/>
        <pt x="992" y="437" on="1"/>
        <pt x="992" y="443" on="1"/>
        <pt x="742" y="443" on="1"/>
        <pt x="742" y="573" on="1"/>
        <pt x="1391" y="573" on="1"/>
      </contour>
    </TTGlyph>
    <TTGlyph name="uni13C0" xMin="115" yMin="-18" xMax="1349" yMax="1344">
      <contour>
        <pt x="1043" y="0" on="1"/>
        <pt x="1043" y="154" on="1"/>
        <pt x="919" y="-18" on="0"/>
        <pt x="668" y="-18" on="1"/>
        <pt x="407" y="-18" on="0"/>
        <pt x="115" y="334" on="0"/>
        <pt x="115" y="650" on="1"/>
        <pt x="115" y="861" on="0"/>
        <pt x="268" y="1178" on="0"/>
        <pt x="556" y="1344" on="0"/>
        <pt x="754" y="1344" on="1"/>
        <pt x="883" y="1344" on="0"/>
        <pt x="1134" y="1261" on="0"/>
        <pt x="1191" y="1194" on="1"/>
        <pt x="1191" y="941" on="1"/>
        <pt x="1045" y="941" on="1"/>
        <pt x="1035" y="1124" on="1"/>
        <pt x="988" y="1162" on="0"/>
        <pt x="837" y="1204" on="0"/>
        <pt x="754" y="1204" on="1"/>
        <pt x="527" y="1204" on="0"/>
        <pt x="289" y="927" on="0"/>
        <pt x="289" y="655" on="1"/>
        <pt x="289" y="406" on="0"/>
        <pt x="496" y="121" on="0"/>
        <pt x="682" y="121" on="1"/>
        <pt x="820" y="121" on="0"/>
        <pt x="1022" y="262" on="0"/>
        <pt x="1043" y="375" on="1"/>
        <pt x="1043" y="465" on="1"/>
        <pt x="884" y="480" on="1"/>
        <pt x="884" y="585" on="1"/>
        <pt x="1349" y="585" on="1"/>
        <pt x="1349" y="480" on="1"/>
        <pt x="1199" y="465" on="1"/>
        <pt x="1199" y="0" on="1"/>
      </contour>
    </TTGlyph>
    <TTGlyph name="uni13C1" xMin="50" yMin="-12" xMax="1453" yMax="1344">
      <contour>
        <pt x="1301" y="120" on="1"/>
        <pt x="1453" y="105" on="1"/>
        <pt x="1453" y="0" on="1"/>
        <pt x="981" y="0" on="1"/>
        <pt x="981" y="105" on="1"/>
        <pt x="1131" y="120" on="1"/>
        <pt x="1131" y="840" on="1"/>
        <pt x="1131" y="1032" on="0"/>
        <pt x="1008" y="1204" on="0"/>
        <pt x="874" y="1204" on="1"/>
        <pt x="784" y="1204" on="0"/>
        <pt x="659" y="1120" on="0"/>
        <pt x="593" y="944" on="0"/>
        <pt x="579" y="758" on="1"/>
        <pt x="563" y="553" on="0"/>
        <pt x="524" y="310" on="0"/>
        <pt x="453" y="127" on="0"/>
        <pt x="364" y="35" on="0"/>
        <pt x="259" y="-12" on="0"/>
        <pt x="196" y="-12" on="1"/>
        <pt x="129" y="-12" on="0"/>
        <pt x="50" y="57" on="0"/>
        <pt x="50" y="111" on="1"/>
        <pt x="50" y="156" on="0"/>
        <pt x="105" y="217" on="0"/>
        <pt x="149" y="217" on="1"/>
        <pt x="190" y="217" on="0"/>
        <pt x="242" y="166" on="0"/>
        <pt x="242" y="123" on="1"/>
        <pt x="242" y="115" on="1"/>
        <pt x="311" y="133" on="0"/>
        <pt x="397" y="451" on="0"/>
        <pt x="421" y="795" on="1"/>
        <pt x="440" y="1068" on="0"/>
        <pt x="663" y="1344" on="0"/>
        <pt x="865" y="1344" on="1"/>
        <pt x="1087" y="1344" on="0"/>
        <pt x="1301" y="1105" on="0"/>
        <pt x="1301" y="851" on="1"/>
      </contour>
    </TTGlyph>
    <TTGlyph name="uni13C2" xMin="115" yMin="0" xMax="1349" yMax="1324">
      <contour>
        <pt x="1349" y="105" on="1"/>
        <pt x="1349" y="0" on="1"/>
        <pt x="878" y="0" on="1"/>
        <pt x="878" y="105" on="1"/>
        <pt x="1029" y="120" on="1"/>
        <pt x="1029" y="452" on="1"/>
        <pt x="1029" y="607" on="0"/>
        <pt x="907" y="769" on="0"/>
        <pt x="774" y="769" on="1"/>
        <pt x="603" y="769" on="0"/>
        <pt x="435" y="574" on="0"/>
        <pt x="435" y="373" on="1"/>
        <pt x="435" y="120" on="1"/>
        <pt x="586" y="105" on="1"/>
        <pt x="586" y="0" on="1"/>
        <pt x="115" y="0" on="1"/>
        <pt x="115" y="105" on="1"/>
        <pt x="267" y="120" on="1"/>
        <pt x="267" y="1204" on="1"/>
        <pt x="115" y="1219" on="1"/>
        <pt x="115" y="1324" on="1"/>
        <pt x="598" y="1324" on="1"/>
        <pt x="598" y="1219" on="1"/>
        <pt x="435" y="1204" on="1"/>
        <pt x="435" y="893" on="1"/>
        <pt x="435" y="782" on="0"/>
        <pt x="427" y="726" on="1"/>
        <pt x="439" y="726" on="1"/>
        <pt x="542" y="909" on="0"/>
        <pt x="792" y="909" on="1"/>
        <pt x="996" y="909" on="0"/>
        <pt x="1197" y="690" on="0"/>
        <pt x="1197" y="461" on="1"/>
        <pt x="1197" y="120" on="1"/>
      </contour>
    </TTGlyph>
    <TTGlyph name="uni13C3" xMin="115" yMin="0" xMax="1110" yMax="1324">
      <contour>
        <pt x="1104" y="0" on="1"/>
        <pt x="115" y="0" on="1"/>
        <pt x="115" y="126" on="1"/>
        <pt x="925" y="1194" on="1"/>
        <pt x="272" y="1194" on="1"/>
        <pt x="257" y="987" on="1"/>
        <pt x="128" y="987" on="1"/>
        <pt x="128" y="1324" on="1"/>
        <pt x="1110" y="1324" on="1"/>
        <pt x="1110" y="1197" on="1"/>
        <pt x="299" y="130" on="1"/>
        <pt x="960" y="130" on="1"/>
        <pt x="975" y="337" on="1"/>
        <pt x="1104" y="337" on="1"/>
      </contour>
    </TTGlyph>
    <TTGlyph name="uni13C4" xMin="50" yMin="0" xMax="1236" yMax="1344">
      <contour>
        <pt x="919" y="244" on="1"/>
        <pt x="919" y="373" on="0"/>
        <pt x="928" y="458" on="1"/>
        <pt x="918" y="458" on="1"/>
        <pt x="868" y="383" on="0"/>
        <pt x="686" y="303" on="0"/>
        <pt x="562" y="303" on="1"/>
        <pt x="398" y="303" on="0"/>
        <pt x="188" y="478" on="0"/>
        <pt x="168" y="631" on="1"/>
        <pt x="50" y="643" on="1"/>
        <pt x="50" y="747" on="1"/>
        <pt x="481" y="747" on="1"/>
        <pt x="481" y="643" on="1"/>
        <pt x="329" y="632" on="1"/>
        <pt x="331" y="545" on="0"/>
        <pt x="473" y="439" on="0"/>
        <pt x="589" y="439" on="1"/>
        <pt x="684" y="439" on="0"/>
        <pt x="834" y="529" on="0"/>
        <pt x="919" y="703" on="0"/>
        <pt x="919" y="823" on="1"/>
        <pt x="919" y="829" on="1"/>
        <pt x="919" y="1208" on="0"/>
        <pt x="609" y="1208" on="1"/>
        <pt x="494" y="1208" on="0"/>
        <pt x="333" y="1099" on="0"/>
        <pt x="329" y="1015" on="1"/>
        <pt x="481" y="1005" on="1"/>
        <pt x="481" y="900" on="1"/>
        <pt x="50" y="900" on="1"/>
        <pt x="50" y="1005" on="1"/>
        <pt x="168" y="1016" on="1"/>
        <pt x="181" y="1113" on="0"/>
        <pt x="297" y="1258" on="0"/>
        <pt x="498" y="1344" on="0"/>
        <pt x="606" y="1344" on="1"/>
        <pt x="841" y="1344" on="0"/>
        <pt x="1085" y="1080" on="0"/>
        <pt x="1085" y="823" on="1"/>
        <pt x="1085" y="120" on="1"/>
        <pt x="1236" y="105" on="1"/>
        <pt x="1236" y="0" on="1"/>
        <pt x="764" y="0" on="1"/>
        <pt x="764" y="105" on="1"/>
        <pt x="919" y="120" on="1"/>
      </contour>
    </TTGlyph>
    <TTGlyph name="uni13C5" xMin="115" yMin="-18" xMax="2044" yMax="1344">
      <contour>
        <pt x="687" y="-18" on="1"/>
        <pt x="410" y="-18" on="0"/>
        <pt x="115" y="328" on="0"/>
        <pt x="115" y="664" on="1"/>
        <pt x="115" y="990" on="0"/>
        <pt x="416" y="1344" on="0"/>
        <pt x="692" y="1344" on="1"/>
        <pt x="944" y="1344" on="0"/>
        <pt x="1226" y="1036" on="0"/>
        <pt x="1247" y="750" on="1"/>
        <pt x="1539" y="929" on="1"/>
        <pt x="1548" y="926" on="1"/>
        <pt x="1590" y="755" on="0"/>
        <pt x="1677" y="627" on="0"/>
        <pt x="1741" y="627" on="1"/>
        <pt x="1809" y="627" on="0"/>
        <pt x="1897" y="739" on="0"/>
        <pt x="1922" y="877" on="1"/>
        <pt x="2044" y="865" on="1"/>
        <pt x="2023" y="668" on="0"/>
        <pt x="1868" y="483" on="0"/>
        <pt x="1733" y="483" on="1"/>
        <pt x="1629" y="483" on="0"/>
        <pt x="1496" y="607" on="0"/>
        <pt x="1455" y="726" on="1"/>
        <pt x="1248" y="604" on="1"/>
        <pt x="1233" y="314" on="0"/>
        <pt x="935" y="-18" on="0"/>
      </contour>
      <contour>
        <pt x="289" y="663" on="1"/>
        <pt x="289" y="394" on="0"/>
        <pt x="490" y="121" on="0"/>
        <pt x="687" y="121" on="1"/>
        <pt x="884" y="121" on="0"/>
        <pt x="1081" y="387" on="0"/>
        <pt x="1081" y="663" on="1"/>
        <pt x="1081" y="1205" on="0"/>
        <pt x="692" y="1205" on="1"/>
        <pt x="289" y="1205" on="0"/>
      </contour>
    </TTGlyph>
    <TTGlyph name="uni13C6" xMin="150" yMin="0" xMax="1309" yMax="1324">
      <contour>
        <pt x="640" y="1194" on="1"/>
        <pt x="294" y="1194" on="1"/>
        <pt x="279" y="987" on="1"/>
        <pt x="150" y="987" on="1"/>
        <pt x="150" y="1324" on="1"/>
        <pt x="1264" y="1324" on="1"/>
        <pt x="1264" y="987" on="1"/>
        <pt x="1135" y="987" on="1"/>
        <pt x="1120" y="1194" on="1"/>
        <pt x="808" y="1194" on="1"/>
        <pt x="808" y="130" on="1"/>
        <pt x="1165" y="130" on="1"/>
        <pt x="1180" y="337" on="1"/>
        <pt x="1309" y="337" on="1"/>
        <pt x="1309" y="0" on="1"/>
        <pt x="184" y="0" on="1"/>
        <pt x="184" y="337" on="1"/>
        <pt x="313" y="337" on="1"/>
        <pt x="328" y="130" on="1"/>
        <pt x="641" y="130" on="1"/>
      </contour>
    </TTGlyph>
    <TTGlyph name="uni13C7" xMin="70" yMin="-20" xMax="1781" yMax="1344">
      <contour>
        <pt x="974" y="715" on="1"/>
        <pt x="974" y="472" on="1"/>
        <pt x="974" y="369" on="0"/>
        <pt x="1039" y="210" on="0"/>
        <pt x="1164" y="120" on="0"/>
        <pt x="1254" y="120" on="1"/>
        <pt x="1432" y="120" on="0"/>
        <pt x="1607" y="404" on="0"/>
        <pt x="1607" y="670" on="1"/>
        <pt x="1607" y="904" on="0"/>
        <pt x="1371" y="1196" on="0"/>
        <pt x="1173" y="1196" on="1"/>
        <pt x="1072" y="1196" on="0"/>
        <pt x="883" y="1113" on="0"/>
        <pt x="825" y="1037" on="1"/>
        <pt x="717" y="1114" on="1"/>
        <pt x="786" y="1225" on="0"/>
        <pt x="1028" y="1344" on="0"/>
        <pt x="1180" y="1344" on="1"/>
        <pt x="1357" y="1344" on="0"/>
        <pt x="1632" y="1174" on="0"/>
        <pt x="1781" y="866" on="0"/>
        <pt x="1781" y="670" on="1"/>
        <pt x="1781" y="328" on="0"/>
        <pt x="1508" y="-20" on="0"/>
        <pt x="1246" y="-20" on="1"/>
        <pt x="1101" y="-20" on="0"/>
        <pt x="912" y="117" on="0"/>
        <pt x="877" y="241" on="1"/>
        <pt x="868" y="241" on="1"/>
        <pt x="820" y="120" on="0"/>
        <pt x="627" y="-20" on="0"/>
        <pt x="480" y="-20" on="1"/>
        <pt x="280" y="-20" on="0"/>
        <pt x="70" y="203" on="0"/>
        <pt x="70" y="418" on="1"/>
        <pt x="70" y="509" on="0"/>
        <pt x="118" y="694" on="0"/>
        <pt x="151" y="735" on="1"/>
        <pt x="292" y="729" on="1"/>
        <pt x="267" y="681" on="0"/>
        <pt x="232" y="531" on="0"/>
        <pt x="232" y="445" on="1"/>
        <pt x="232" y="279" on="0"/>
        <pt x="364" y="120" on="0"/>
        <pt x="484" y="120" on="1"/>
        <pt x="611" y="120" on="0"/>
        <pt x="776" y="287" on="0"/>
        <pt x="806" y="448" on="1"/>
        <pt x="806" y="572" on="0"/>
        <pt x="817" y="715" on="1"/>
      </contour>
    </TTGlyph>
    <TTGlyph name="uni13C8" xMin="60" yMin="-20" xMax="1507" yMax="1344">
      <contour>
        <pt x="1248" y="855" on="1"/>
        <pt x="1296" y="871" on="0"/>
        <pt x="1352" y="962" on="0"/>
        <pt x="1352" y="1029" on="1"/>
        <pt x="1352" y="1111" on="0"/>
        <pt x="1233" y="1206" on="0"/>
        <pt x="1139" y="1206" on="1"/>
        <pt x="992" y="1206" on="0"/>
        <pt x="872" y="1092" on="1"/>
        <pt x="1122" y="788" on="0"/>
        <pt x="1122" y="418" on="1"/>
        <pt x="1122" y="224" on="0"/>
        <pt x="911" y="-20" on="0"/>
        <pt x="743" y="-20" on="1"/>
        <pt x="574" y="-20" on="0"/>
        <pt x="390" y="205" on="0"/>
        <pt x="390" y="403" on="1"/>
        <pt x="390" y="578" on="0"/>
        <pt x="539" y="943" on="0"/>
        <pt x="668" y="1090" on="1"/>
        <pt x="612" y="1151" on="0"/>
        <pt x="488" y="1206" on="0"/>
        <pt x="436" y="1206" on="1"/>
        <pt x="322" y="1206" on="0"/>
        <pt x="206" y="1046" on="0"/>
        <pt x="203" y="907" on="1"/>
        <pt x="203" y="876" on="1"/>
        <pt x="206" y="839" on="1"/>
        <pt x="65" y="839" on="1"/>
        <pt x="60" y="899" on="1"/>
        <pt x="60" y="1109" on="0"/>
        <pt x="260" y="1344" on="0"/>
        <pt x="444" y="1344" on="1"/>
        <pt x="526" y="1344" on="0"/>
        <pt x="700" y="1266" on="0"/>
        <pt x="773" y="1194" on="1"/>
        <pt x="943" y="1344" on="0"/>
        <pt x="1141" y="1344" on="1"/>
        <pt x="1309" y="1344" on="0"/>
        <pt x="1507" y="1172" on="0"/>
        <pt x="1507" y="1029" on="1"/>
        <pt x="1507" y="907" on="0"/>
        <pt x="1369" y="740" on="0"/>
        <pt x="1248" y="725" on="1"/>
      </contour>
      <contour>
        <pt x="954" y="416" on="1"/>
        <pt x="954" y="583" on="0"/>
        <pt x="865" y="864" on="0"/>
        <pt x="767" y="991" on="1"/>
        <pt x="673" y="882" on="0"/>
        <pt x="553" y="556" on="0"/>
        <pt x="553" y="406" on="1"/>
        <pt x="553" y="262" on="0"/>
        <pt x="654" y="116" on="0"/>
        <pt x="748" y="116" on="1"/>
        <pt x="843" y="116" on="0"/>
        <pt x="954" y="278" on="0"/>
      </contour>
    </TTGlyph>
    <TTGlyph name="uni13C9" xMin="30" yMin="0" xMax="2318" yMax="1324">
      <contour>
        <pt x="1412" y="1324" on="1"/>
        <pt x="1572" y="1324" on="1"/>
        <pt x="1572" y="1276" on="1"/>
        <pt x="1582" y="1251" on="0"/>
        <pt x="1638" y="1222" on="0"/>
        <pt x="1679" y="1222" on="1"/>
        <pt x="1724" y="1222" on="0"/>
        <pt x="1801" y="1254" on="0"/>
        <pt x="1881" y="1291" on="0"/>
        <pt x="1970" y="1323" on="0"/>
        <pt x="2027" y="1323" on="1"/>
        <pt x="2154" y="1323" on="0"/>
        <pt x="2318" y="1168" on="0"/>
        <pt x="2318" y="1043" on="1"/>
        <pt x="2318" y="903" on="0"/>
        <pt x="2139" y="731" on="0"/>
        <pt x="2000" y="731" on="1"/>
        <pt x="1881" y="731" on="0"/>
        <pt x="1730" y="845" on="0"/>
        <pt x="1708" y="951" on="1"/>
        <pt x="1833" y="991" on="1"/>
        <pt x="1870" y="858" on="0"/>
        <pt x="2000" y="858" on="1"/>
        <pt x="2079" y="858" on="0"/>
        <pt x="2176" y="956" on="0"/>
        <pt x="2176" y="1035" on="1"/>
        <pt x="2176" y="1102" on="0"/>
        <pt x="2096" y="1186" on="0"/>
        <pt x="2020" y="1186" on="1"/>
        <pt x="1976" y="1186" on="0"/>
        <pt x="1900" y="1156" on="0"/>
        <pt x="1823" y="1121" on="0"/>
        <pt x="1737" y="1091" on="0"/>
        <pt x="1683" y="1091" on="1"/>
        <pt x="1592" y="1091" on="0"/>
        <pt x="1534" y="1141" on="1"/>
        <pt x="1150" y="0" on="1"/>
        <pt x="944" y="0" on="1"/>
        <pt x="795" y="571" on="1"/>
        <pt x="788" y="571" on="1"/>
        <pt x="729" y="427" on="0"/>
        <pt x="499" y="264" on="0"/>
        <pt x="349" y="264" on="1"/>
        <pt x="259" y="264" on="0"/>
        <pt x="112" y="335" on="0"/>
        <pt x="30" y="466" on="0"/>
        <pt x="30" y="552" on="1"/>
        <pt x="30" y="635" on="0"/>
        <pt x="105" y="775" on="0"/>
        <pt x="235" y="855" on="0"/>
        <pt x="308" y="855" on="1"/>
        <pt x="382" y="855" on="0"/>
        <pt x="484" y="783" on="0"/>
        <pt x="484" y="724" on="1"/>
        <pt x="484" y="677" on="0"/>
        <pt x="430" y="620" on="0"/>
        <pt x="385" y="620" on="1"/>
        <pt x="346" y="620" on="0"/>
        <pt x="297" y="665" on="0"/>
        <pt x="297" y="707" on="1"/>
        <pt x="299" y="730" on="1"/>
        <pt x="237" y="726" on="0"/>
        <pt x="169" y="637" on="0"/>
        <pt x="169" y="564" on="1"/>
        <pt x="169" y="490" on="0"/>
        <pt x="274" y="404" on="0"/>
        <pt x="365" y="404" on="1"/>
        <pt x="461" y="404" on="0"/>
        <pt x="627" y="520" on="0"/>
        <pt x="726" y="721" on="0"/>
        <pt x="727" y="833" on="1"/>
        <pt x="599" y="1324" on="1"/>
        <pt x="773" y="1324" on="1"/>
        <pt x="970" y="479" on="1"/>
        <pt x="1051" y="112" on="1"/>
        <pt x="1056" y="112" on="1"/>
        <pt x="1080" y="200" on="0"/>
        <pt x="1165" y="478" on="1"/>
        <pt x="1333" y="1007" on="1"/>
        <pt x="1386" y="1171" on="0"/>
        <pt x="1412" y="1276" on="1"/>
      </contour>
    </TTGlyph>
    <TTGlyph name="uni13CA" xMin="70" yMin="-20" xMax="1841" yMax="1344">
      <contour>
        <pt x="1119" y="779" on="1"/>
        <pt x="1188" y="779" on="0"/>
        <pt x="1273" y="707" on="0"/>
        <pt x="1273" y="651" on="1"/>
        <pt x="1273" y="606" on="0"/>
        <pt x="1215" y="544" on="0"/>
        <pt x="1163" y="544" on="1"/>
        <pt x="1124" y="544" on="0"/>
        <pt x="1076" y="585" on="0"/>
        <pt x="1074" y="626" on="1"/>
        <pt x="1026" y="612" on="0"/>
        <pt x="974" y="500" on="0"/>
        <pt x="974" y="411" on="1"/>
        <pt x="974" y="331" on="0"/>
        <pt x="1040" y="200" on="0"/>
        <pt x="1166" y="120" on="0"/>
        <pt x="1256" y="120" on="1"/>
        <pt x="1450" y="120" on="0"/>
        <pt x="1667" y="421" on="0"/>
        <pt x="1667" y="680" on="1"/>
        <pt x="1667" y="833" on="0"/>
        <pt x="1546" y="1073" on="0"/>
        <pt x="1333" y="1204" on="0"/>
        <pt x="1205" y="1204" on="1"/>
        <pt x="1098" y="1204" on="0"/>
        <pt x="903" y="1129" on="0"/>
        <pt x="842" y="1063" on="1"/>
        <pt x="742" y="1150" on="1"/>
        <pt x="812" y="1242" on="0"/>
        <pt x="1060" y="1344" on="0"/>
        <pt x="1212" y="1344" on="1"/>
        <pt x="1394" y="1344" on="0"/>
        <pt x="1682" y="1176" on="0"/>
        <pt x="1841" y="870" on="0"/>
        <pt x="1841" y="680" on="1"/>
        <pt x="1841" y="358" on="0"/>
        <pt x="1522" y="-20" on="0"/>
        <pt x="1246" y="-20" on="1"/>
        <pt x="1105" y="-20" on="0"/>
        <pt x="905" y="108" on="0"/>
        <pt x="874" y="220" on="1"/>
        <pt x="863" y="220" on="1"/>
        <pt x="810" y="103" on="0"/>
        <pt x="615" y="-20" on="0"/>
        <pt x="489" y="-20" on="1"/>
        <pt x="286" y="-20" on="0"/>
        <pt x="70" y="211" on="0"/>
        <pt x="70" y="419" on="1"/>
        <pt x="70" y="509" on="0"/>
        <pt x="118" y="695" on="0"/>
        <pt x="151" y="735" on="1"/>
        <pt x="292" y="729" on="1"/>
        <pt x="267" y="681" on="0"/>
        <pt x="232" y="532" on="0"/>
        <pt x="232" y="450" on="1"/>
        <pt x="232" y="291" on="0"/>
        <pt x="366" y="120" on="0"/>
        <pt x="489" y="120" on="1"/>
        <pt x="617" y="120" on="0"/>
        <pt x="786" y="297" on="0"/>
        <pt x="821" y="469" on="1"/>
        <pt x="856" y="634" on="0"/>
        <pt x="1005" y="779" on="0"/>
      </contour>
    </TTGlyph>
    <TTGlyph name="uni13CB" xMin="115" yMin="-20" xMax="1103" yMax="1344">
      <contour>
        <pt x="619" y="-20" on="1"/>
        <pt x="375" y="-20" on="0"/>
        <pt x="115" y="181" on="0"/>
        <pt x="115" y="364" on="1"/>
        <pt x="115" y="502" on="0"/>
        <pt x="274" y="696" on="0"/>
        <pt x="410" y="726" on="1"/>
        <pt x="410" y="736" on="1"/>
        <pt x="290" y="760" on="0"/>
        <pt x="166" y="903" on="0"/>
        <pt x="166" y="1009" on="1"/>
        <pt x="166" y="1161" on="0"/>
        <pt x="413" y="1344" on="0"/>
        <pt x="622" y="1344" on="1"/>
        <pt x="877" y="1344" on="0"/>
        <pt x="1032" y="1253" on="1"/>
        <pt x="968" y="1134" on="1"/>
        <pt x="908" y="1165" on="0"/>
        <pt x="726" y="1204" on="0"/>
        <pt x="636" y="1204" on="1"/>
        <pt x="493" y="1204" on="0"/>
        <pt x="330" y="1096" on="0"/>
        <pt x="330" y="998" on="1"/>
        <pt x="330" y="803" on="0"/>
        <pt x="674" y="803" on="1"/>
        <pt x="922" y="803" on="1"/>
        <pt x="922" y="663" on="1"/>
        <pt x="674" y="663" on="1"/>
        <pt x="497" y="663" on="0"/>
        <pt x="287" y="514" on="0"/>
        <pt x="287" y="383" on="1"/>
        <pt x="287" y="253" on="0"/>
        <pt x="459" y="120" on="0"/>
        <pt x="627" y="120" on="1"/>
        <pt x="774" y="120" on="0"/>
        <pt x="948" y="207" on="0"/>
        <pt x="948" y="283" on="1"/>
        <pt x="948" y="368" on="0"/>
        <pt x="825" y="368" on="1"/>
        <pt x="792" y="368" on="1"/>
        <pt x="792" y="489" on="1"/>
        <pt x="839" y="493" on="1"/>
        <pt x="968" y="493" on="0"/>
        <pt x="1103" y="381" on="0"/>
        <pt x="1103" y="276" on="1"/>
        <pt x="1103" y="142" on="0"/>
        <pt x="836" y="-20" on="0"/>
      </contour>
    </TTGlyph>
    <TTGlyph name="uni13CC" xMin="70" yMin="-17" xMax="1383" yMax="1324">
      <contour>
        <pt x="1383" y="1219" on="1"/>
        <pt x="1233" y="1204" on="1"/>
        <pt x="1233" y="414" on="1"/>
        <pt x="1233" y="207" on="0"/>
        <pt x="974" y="-17" on="0"/>
        <pt x="731" y="-17" on="1"/>
        <pt x="471" y="-17" on="0"/>
        <pt x="220" y="200" on="0"/>
        <pt x="220" y="428" on="1"/>
        <pt x="220" y="1204" on="1"/>
        <pt x="70" y="1219" on="1"/>
        <pt x="70" y="1324" on="1"/>
        <pt x="540" y="1324" on="1"/>
        <pt x="540" y="1219" on="1"/>
        <pt x="388" y="1204" on="1"/>
        <pt x="388" y="780" on="1"/>
        <pt x="1065" y="780" on="1"/>
        <pt x="1065" y="1204" on="1"/>
        <pt x="913" y="1219" on="1"/>
        <pt x="913" y="1324" on="1"/>
        <pt x="1383" y="1324" on="1"/>
      </contour>
      <contour>
        <pt x="731" y="123" on="1"/>
        <pt x="903" y="123" on="0"/>
        <pt x="1065" y="271" on="0"/>
        <pt x="1065" y="435" on="1"/>
        <pt x="1065" y="650" on="1"/>
        <pt x="388" y="650" on="1"/>
        <pt x="388" y="444" on="1"/>
        <pt x="388" y="275" on="0"/>
        <pt x="555" y="123" on="0"/>
      </contour>
    </TTGlyph>
    <TTGlyph name="uni13CD" xMin="70" yMin="-20" xMax="1803" yMax="1344">
      <contour>
        <pt x="70" y="384" on="1"/>
        <pt x="70" y="571" on="0"/>
        <pt x="276" y="803" on="0"/>
        <pt x="452" y="803" on="1"/>
        <pt x="604" y="803" on="0"/>
        <pt x="801" y="645" on="0"/>
        <pt x="827" y="494" on="1"/>
        <pt x="1076" y="595" on="1"/>
        <pt x="1079" y="703" on="1"/>
        <pt x="924" y="718" on="1"/>
        <pt x="924" y="823" on="1"/>
        <pt x="1376" y="823" on="1"/>
        <pt x="1376" y="718" on="1"/>
        <pt x="1234" y="703" on="1"/>
        <pt x="1234" y="389" on="1"/>
        <pt x="1234" y="242" on="0"/>
        <pt x="1307" y="110" on="0"/>
        <pt x="1391" y="110" on="1"/>
        <pt x="1506" y="110" on="0"/>
        <pt x="1630" y="359" on="0"/>
        <pt x="1630" y="595" on="1"/>
        <pt x="1630" y="886" on="0"/>
        <pt x="1312" y="1194" on="0"/>
        <pt x="1012" y="1194" on="1"/>
        <pt x="871" y="1194" on="0"/>
        <pt x="594" y="1094" on="0"/>
        <pt x="504" y="1013" on="1"/>
        <pt x="417" y="1113" on="1"/>
        <pt x="463" y="1171" on="0"/>
        <pt x="654" y="1279" on="0"/>
        <pt x="888" y="1344" on="0"/>
        <pt x="1013" y="1344" on="1"/>
        <pt x="1383" y="1344" on="0"/>
        <pt x="1803" y="948" on="0"/>
        <pt x="1803" y="592" on="1"/>
        <pt x="1803" y="304" on="0"/>
        <pt x="1580" y="-20" on="0"/>
        <pt x="1387" y="-20" on="1"/>
        <pt x="1233" y="-20" on="0"/>
        <pt x="1079" y="160" on="0"/>
        <pt x="1077" y="357" on="1"/>
        <pt x="1076" y="473" on="1"/>
        <pt x="832" y="349" on="1"/>
        <pt x="817" y="177" on="0"/>
        <pt x="614" y="-20" on="0"/>
        <pt x="453" y="-20" on="1"/>
        <pt x="273" y="-20" on="0"/>
        <pt x="70" y="196" on="0"/>
      </contour>
      <contour>
        <pt x="678" y="395" on="1"/>
        <pt x="678" y="527" on="0"/>
        <pt x="559" y="675" on="0"/>
        <pt x="452" y="675" on="1"/>
        <pt x="345" y="675" on="0"/>
        <pt x="227" y="521" on="0"/>
        <pt x="227" y="388" on="1"/>
        <pt x="227" y="256" on="0"/>
        <pt x="346" y="108" on="0"/>
        <pt x="453" y="108" on="1"/>
        <pt x="560" y="108" on="0"/>
        <pt x="678" y="262" on="0"/>
      </contour>
    </TTGlyph>
    <TTGlyph name="uni13CE" xMin="30" yMin="0" xMax="1066" yMax="1328">
      <contour>
        <pt x="1066" y="334" on="1"/>
        <pt x="869" y="334" on="1"/>
        <pt x="869" y="120" on="1"/>
        <pt x="1019" y="105" on="1"/>
        <pt x="1019" y="0" on="1"/>
        <pt x="551" y="0" on="1"/>
        <pt x="551" y="105" on="1"/>
        <pt x="701" y="120" on="1"/>
        <pt x="701" y="334" on="1"/>
        <pt x="30" y="334" on="1"/>
        <pt x="30" y="463" on="1"/>
        <pt x="659" y="1328" on="1"/>
        <pt x="869" y="1328" on="1"/>
        <pt x="869" y="472" on="1"/>
        <pt x="1066" y="472" on="1"/>
      </contour>
      <contour>
        <pt x="701" y="472" on="1"/>
        <pt x="701" y="537" on="1"/>
        <pt x="710" y="1089" on="1"/>
        <pt x="712" y="1172" on="1"/>
        <pt x="704" y="1172" on="1"/>
        <pt x="587" y="992" on="1"/>
        <pt x="209" y="472" on="1"/>
      </contour>
    </TTGlyph>
    <TTGlyph name="uni13CF" xMin="115" yMin="0" xMax="1148" yMax="1324">
      <contour>
        <pt x="1148" y="395" on="1"/>
        <pt x="1148" y="199" on="0"/>
        <pt x="866" y="0" on="0"/>
        <pt x="587" y="0" on="1"/>
        <pt x="115" y="0" on="1"/>
        <pt x="115" y="105" on="1"/>
        <pt x="266" y="120" on="1"/>
        <pt x="266" y="1204" on="1"/>
        <pt x="115" y="1219" on="1"/>
        <pt x="115" y="1324" on="1"/>
        <pt x="598" y="1324" on="1"/>
        <pt x="598" y="1219" on="1"/>
        <pt x="434" y="1204" on="1"/>
        <pt x="434" y="768" on="1"/>
        <pt x="617" y="768" on="1"/>
        <pt x="894" y="768" on="0"/>
        <pt x="1148" y="584" on="0"/>
      </contour>
      <contour>
        <pt x="434" y="130" on="1"/>
        <pt x="610" y="130" on="1"/>
        <pt x="805" y="130" on="0"/>
        <pt x="979" y="262" on="0"/>
        <pt x="979" y="391" on="1"/>
        <pt x="979" y="523" on="0"/>
        <pt x="818" y="638" on="0"/>
        <pt x="616" y="638" on="1"/>
        <pt x="434" y="638" on="1"/>
      </contour>
    </TTGlyph>
    <TTGlyph name="uni13D0" xMin="50" yMin="0" xMax="1228" yMax="1324">
      <contour>
        <pt x="723" y="817" on="1"/>
        <pt x="837" y="898" on="0"/>
        <pt x="953" y="898" on="1"/>
        <pt x="1080" y="898" on="0"/>
        <pt x="1228" y="764" on="0"/>
        <pt x="1228" y="653" on="1"/>
        <pt x="1228" y="588" on="0"/>
        <pt x="1158" y="500" on="0"/>
        <pt x="1098" y="500" on="1"/>
        <pt x="1053" y="500" on="0"/>
        <pt x="997" y="549" on="0"/>
        <pt x="997" y="591" on="1"/>
        <pt x="997" y="625" on="0"/>
        <pt x="1042" y="673" on="0"/>
        <pt x="1086" y="678" on="1"/>
        <pt x="1082" y="723" on="0"/>
        <pt x="1008" y="770" on="0"/>
        <pt x="945" y="770" on="1"/>
        <pt x="892" y="770" on="0"/>
        <pt x="763" y="705" on="0"/>
        <pt x="723" y="658" on="1"/>
        <pt x="723" y="120" on="1"/>
        <pt x="875" y="105" on="1"/>
        <pt x="875" y="0" on="1"/>
        <pt x="404" y="0" on="1"/>
        <pt x="404" y="105" on="1"/>
        <pt x="555" y="120" on="1"/>
        <pt x="555" y="549" on="1"/>
        <pt x="508" y="512" on="0"/>
        <pt x="384" y="467" on="0"/>
        <pt x="325" y="467" on="1"/>
        <pt x="198" y="467" on="0"/>
        <pt x="50" y="601" on="0"/>
        <pt x="50" y="712" on="1"/>
        <pt x="50" y="779" on="0"/>
        <pt x="120" y="865" on="0"/>
        <pt x="179" y="865" on="1"/>
        <pt x="222" y="865" on="0"/>
        <pt x="281" y="816" on="0"/>
        <pt x="281" y="774" on="1"/>
        <pt x="281" y="742" on="0"/>
        <pt x="240" y="691" on="0"/>
        <pt x="192" y="687" on="1"/>
        <pt x="195" y="642" on="0"/>
        <pt x="272" y="595" on="0"/>
        <pt x="333" y="595" on="1"/>
        <pt x="387" y="595" on="0"/>
        <pt x="513" y="657" on="0"/>
        <pt x="555" y="708" on="1"/>
        <pt x="555" y="1204" on="1"/>
        <pt x="404" y="1219" on="1"/>
        <pt x="404" y="1324" on="1"/>
        <pt x="875" y="1324" on="1"/>
        <pt x="875" y="1219" on="1"/>
        <pt x="723" y="1204" on="1"/>
      </contour>
    </TTGlyph>
    <TTGlyph name="uni13D1" xMin="70" yMin="-15" xMax="1546" yMax="1344">
      <contour>
        <pt x="1239" y="1145" on="1"/>
        <pt x="1185" y="1145" on="0"/>
        <pt x="1074" y="1090" on="0"/>
        <pt x="955" y="996" on="1"/>
        <pt x="841" y="904" on="0"/>
        <pt x="680" y="816" on="0"/>
        <pt x="604" y="802" on="1"/>
        <pt x="549" y="571" on="1"/>
        <pt x="589" y="571" on="1"/>
        <pt x="963" y="571" on="0"/>
        <pt x="963" y="261" on="1"/>
        <pt x="963" y="145" on="0"/>
        <pt x="789" y="-15" on="0"/>
        <pt x="657" y="-15" on="1"/>
        <pt x="514" y="-15" on="0"/>
        <pt x="351" y="157" on="0"/>
        <pt x="351" y="307" on="1"/>
        <pt x="351" y="372" on="0"/>
        <pt x="376" y="533" on="0"/>
        <pt x="437" y="786" on="1"/>
        <pt x="70" y="786" on="0"/>
        <pt x="70" y="1072" on="1"/>
        <pt x="70" y="1186" on="0"/>
        <pt x="232" y="1344" on="0"/>
        <pt x="355" y="1344" on="1"/>
        <pt x="489" y="1344" on="0"/>
        <pt x="636" y="1190" on="0"/>
        <pt x="636" y="1044" on="1"/>
        <pt x="631" y="942" on="1"/>
        <pt x="687" y="961" on="0"/>
        <pt x="790" y="1041" on="0"/>
        <pt x="840" y="1085" on="1"/>
        <pt x="952" y="1181" on="0"/>
        <pt x="1064" y="1251" on="0"/>
        <pt x="1181" y="1290" on="0"/>
        <pt x="1244" y="1290" on="1"/>
        <pt x="1380" y="1290" on="0"/>
        <pt x="1546" y="1141" on="0"/>
        <pt x="1546" y="1016" on="1"/>
        <pt x="1546" y="888" on="0"/>
        <pt x="1375" y="717" on="0"/>
        <pt x="1228" y="699" on="1"/>
        <pt x="1228" y="826" on="1"/>
        <pt x="1305" y="842" on="0"/>
        <pt x="1399" y="940" on="0"/>
        <pt x="1399" y="1003" on="1"/>
        <pt x="1399" y="1064" on="0"/>
        <pt x="1312" y="1145" on="0"/>
      </contour>
      <contour>
        <pt x="523" y="454" on="1"/>
        <pt x="508" y="383" on="0"/>
        <pt x="508" y="316" on="1"/>
        <pt x="508" y="208" on="0"/>
        <pt x="588" y="114" on="0"/>
        <pt x="665" y="114" on="1"/>
        <pt x="733" y="114" on="0"/>
        <pt x="814" y="200" on="0"/>
        <pt x="814" y="271" on="1"/>
        <pt x="814" y="364" on="0"/>
        <pt x="695" y="454" on="0"/>
        <pt x="552" y="454" on="1"/>
      </contour>
      <contour>
        <pt x="433" y="918" on="1"/>
        <pt x="450" y="918" on="1"/>
        <pt x="467" y="920" on="1"/>
        <pt x="481" y="1001" on="0"/>
        <pt x="481" y="1044" on="1"/>
        <pt x="481" y="1133" on="0"/>
        <pt x="418" y="1221" on="0"/>
        <pt x="350" y="1221" on="1"/>
        <pt x="288" y="1221" on="0"/>
        <pt x="206" y="1137" on="0"/>
        <pt x="206" y="1077" on="1"/>
        <pt x="206" y="998" on="0"/>
        <pt x="312" y="918" on="0"/>
      </contour>
    </TTGlyph>
    <TTGlyph name="uni13D2" xMin="115" yMin="0" xMax="1310" yMax="1324">
      <contour>
        <pt x="802" y="738" on="1"/>
        <pt x="828" y="687" on="1"/>
        <pt x="1030" y="729" on="0"/>
        <pt x="1030" y="945" on="1"/>
        <pt x="1030" y="1077" on="0"/>
        <pt x="856" y="1194" on="0"/>
        <pt x="653" y="1194" on="1"/>
        <pt x="435" y="1194" on="1"/>
        <pt x="435" y="120" on="1"/>
        <pt x="595" y="105" on="1"/>
        <pt x="595" y="0" on="1"/>
        <pt x="115" y="0" on="1"/>
        <pt x="115" y="105" on="1"/>
        <pt x="267" y="120" on="1"/>
        <pt x="267" y="1204" on="1"/>
        <pt x="115" y="1219" on="1"/>
        <pt x="115" y="1324" on="1"/>
        <pt x="676" y="1324" on="1"/>
        <pt x="930" y="1324" on="0"/>
        <pt x="1205" y="1142" on="0"/>
        <pt x="1205" y="971" on="1"/>
        <pt x="1205" y="817" on="0"/>
        <pt x="1038" y="617" on="0"/>
        <pt x="880" y="588" on="1"/>
        <pt x="1125" y="117" on="1"/>
        <pt x="1310" y="105" on="1"/>
        <pt x="1310" y="0" on="1"/>
        <pt x="826" y="0" on="1"/>
        <pt x="826" y="105" on="1"/>
        <pt x="933" y="115" on="1"/>
        <pt x="643" y="738" on="1"/>
      </contour>
    </TTGlyph>
    <TTGlyph name="uni13D3" xMin="50" yMin="-20" xMax="1041" yMax="1324">
      <contour>
        <pt x="619" y="116" on="1"/>
        <pt x="750" y="116" on="0"/>
        <pt x="890" y="285" on="0"/>
        <pt x="890" y="441" on="1"/>
        <pt x="890" y="629" on="0"/>
        <pt x="788" y="629" on="1"/>
        <pt x="739" y="629" on="0"/>
        <pt x="694" y="557" on="0"/>
        <pt x="693" y="489" on="1"/>
        <pt x="690" y="372" on="1"/>
        <pt x="569" y="372" on="1"/>
        <pt x="564" y="421" on="0"/>
        <pt x="564" y="493" on="1"/>
        <pt x="564" y="622" on="0"/>
        <pt x="685" y="764" on="0"/>
        <pt x="789" y="764" on="1"/>
        <pt x="913" y="764" on="0"/>
        <pt x="1041" y="591" on="0"/>
        <pt x="1041" y="434" on="1"/>
        <pt x="1041" y="223" on="0"/>
        <pt x="814" y="-20" on="0"/>
        <pt x="617" y="-20" on="1"/>
        <pt x="406" y="-20" on="0"/>
        <pt x="202" y="228" on="0"/>
        <pt x="202" y="495" on="1"/>
        <pt x="202" y="1204" on="1"/>
        <pt x="50" y="1219" on="1"/>
        <pt x="50" y="1324" on="1"/>
        <pt x="522" y="1324" on="1"/>
        <pt x="522" y="1219" on="1"/>
        <pt x="370" y="1204" on="1"/>
        <pt x="370" y="479" on="1"/>
        <pt x="370" y="297" on="0"/>
        <pt x="492" y="116" on="0"/>
      </contour>
    </TTGlyph>
    <TTGlyph name="uni13D4" xMin="60" yMin="0" xMax="1810" yMax="1324">
      <contour>
        <pt x="1194" y="118" on="1"/>
        <pt x="1201" y="141" on="0"/>
        <pt x="1319" y="489" on="0"/>
        <pt x="1629" y="1324" on="1"/>
        <pt x="1810" y="1324" on="1"/>
        <pt x="1285" y="0" on="1"/>
        <pt x="1074" y="0" on="1"/>
        <pt x="913" y="480" on="1"/>
        <pt x="725" y="0" on="1"/>
        <pt x="514" y="0" on="1"/>
        <pt x="60" y="1324" on="1"/>
        <pt x="249" y="1324" on="1"/>
        <pt x="514" y="498" on="1"/>
        <pt x="589" y="254" on="0"/>
        <pt x="629" y="118" on="1"/>
        <pt x="637" y="118" on="1"/>
        <pt x="844" y="686" on="1"/>
        <pt x="630" y="1324" on="1"/>
        <pt x="807" y="1324" on="1"/>
        <pt x="942" y="864" on="1"/>
        <pt x="1101" y="1324" on="1"/>
        <pt x="1267" y="1324" on="1"/>
        <pt x="1015" y="671" on="1"/>
        <pt x="1131" y="313" on="0"/>
        <pt x="1186" y="118" on="1"/>
      </contour>
    </TTGlyph>
    <TTGlyph name="uni13D5" xMin="92" yMin="-20" xMax="1192" yMax="1344">
      <contour>
        <pt x="960" y="414" on="1"/>
        <pt x="1192" y="414" on="1"/>
        <pt x="1192" y="284" on="1"/>
        <pt x="961" y="284" on="1"/>
        <pt x="941" y="141" on="0"/>
        <pt x="682" y="-20" on="0"/>
        <pt x="473" y="-20" on="1"/>
        <pt x="369" y="-20" on="0"/>
        <pt x="153" y="40" on="0"/>
        <pt x="92" y="85" on="1"/>
        <pt x="92" y="338" on="1"/>
        <pt x="221" y="338" on="1"/>
        <pt x="233" y="175" on="1"/>
        <pt x="330" y="116" on="0"/>
        <pt x="478" y="116" on="1"/>
        <pt x="631" y="116" on="0"/>
        <pt x="797" y="231" on="0"/>
        <pt x="797" y="338" on="1"/>
        <pt x="797" y="390" on="0"/>
        <pt x="738" y="471" on="0"/>
        <pt x="619" y="544" on="0"/>
        <pt x="452" y="611" on="1"/>
        <pt x="311" y="668" on="0"/>
        <pt x="181" y="767" on="0"/>
        <pt x="115" y="897" on="0"/>
        <pt x="115" y="984" on="1"/>
        <pt x="115" y="1142" on="0"/>
        <pt x="356" y="1344" on="0"/>
        <pt x="540" y="1344" on="1"/>
        <pt x="898" y="1344" on="0"/>
        <pt x="951" y="1081" on="1"/>
        <pt x="1192" y="1081" on="1"/>
        <pt x="1192" y="951" on="1"/>
        <pt x="814" y="951" on="1"/>
        <pt x="814" y="987" on="1"/>
        <pt x="814" y="1092" on="0"/>
        <pt x="673" y="1208" on="0"/>
        <pt x="539" y="1208" on="1"/>
        <pt x="418" y="1208" on="0"/>
        <pt x="275" y="1095" on="0"/>
        <pt x="275" y="1001" on="1"/>
        <pt x="275" y="943" on="0"/>
        <pt x="325" y="860" on="0"/>
        <pt x="431" y="790" on="0"/>
        <pt x="579" y="730" on="1"/>
        <pt x="731" y="667" on="0"/>
        <pt x="864" y="581" on="0"/>
        <pt x="945" y="478" on="0"/>
      </contour>
    </TTGlyph>
    <TTGlyph name="uni13D6" xMin="100" yMin="-20" xMax="1376" yMax="1324">
      <contour>
        <pt x="1248" y="1194" on="1"/>
        <pt x="759" y="1194" on="1"/>
        <pt x="759" y="816" on="1"/>
        <pt x="753" y="662" on="1"/>
        <pt x="763" y="662" on="1"/>
        <pt x="800" y="725" on="0"/>
        <pt x="936" y="784" on="0"/>
        <pt x="1015" y="784" on="1"/>
        <pt x="1186" y="784" on="0"/>
        <pt x="1376" y="573" on="0"/>
        <pt x="1376" y="388" on="1"/>
        <pt x="1376" y="210" on="0"/>
        <pt x="1160" y="-20" on="0"/>
        <pt x="988" y="-20" on="1"/>
        <pt x="895" y="-20" on="0"/>
        <pt x="751" y="40" on="0"/>
        <pt x="644" y="162" on="0"/>
        <pt x="591" y="333" on="0"/>
        <pt x="591" y="511" on="1"/>
        <pt x="591" y="1194" on="1"/>
        <pt x="244" y="1194" on="1"/>
        <pt x="229" y="987" on="1"/>
        <pt x="100" y="987" on="1"/>
        <pt x="100" y="1324" on="1"/>
        <pt x="1248" y="1324" on="1"/>
      </contour>
      <contour>
        <pt x="987" y="116" on="1"/>
        <pt x="1092" y="116" on="0"/>
        <pt x="1219" y="264" on="0"/>
        <pt x="1219" y="392" on="1"/>
        <pt x="1219" y="526" on="0"/>
        <pt x="1106" y="648" on="0"/>
        <pt x="996" y="648" on="1"/>
        <pt x="891" y="648" on="0"/>
        <pt x="761" y="510" on="0"/>
        <pt x="761" y="403" on="1"/>
        <pt x="761" y="266" on="0"/>
        <pt x="880" y="116" on="0"/>
      </contour>
    </TTGlyph>
    <TTGlyph name="uni13D7" xMin="67" yMin="-24" xMax="1214" yMax="1324">
      <contour>
        <pt x="895" y="190" on="1"/>
        <pt x="895" y="239" on="0"/>
        <pt x="902" y="479" on="0"/>
        <pt x="905" y="500" on="1"/>
        <pt x="897" y="500" on="1"/>
        <pt x="801" y="266" on="0"/>
        <pt x="464" y="-24" on="0"/>
        <pt x="282" y="-24" on="1"/>
        <pt x="186" y="-24" on="0"/>
        <pt x="67" y="59" on="0"/>
        <pt x="67" y="134" on="1"/>
        <pt x="67" y="189" on="0"/>
        <pt x="133" y="258" on="0"/>
        <pt x="181" y="258" on="1"/>
        <pt x="230" y="258" on="0"/>
        <pt x="285" y="209" on="0"/>
        <pt x="285" y="167" on="1"/>
        <pt x="285" y="133" on="0"/>
        <pt x="266" y="109" on="1"/>
        <pt x="306" y="106" on="1"/>
        <pt x="419" y="106" on="0"/>
        <pt x="681" y="343" on="0"/>
        <pt x="886" y="722" on="0"/>
        <pt x="895" y="859" on="1"/>
        <pt x="895" y="1204" on="1"/>
        <pt x="733" y="1219" on="1"/>
        <pt x="733" y="1324" on="1"/>
        <pt x="1214" y="1324" on="1"/>
        <pt x="1214" y="1219" on="1"/>
        <pt x="1063" y="1204" on="1"/>
        <pt x="1063" y="120" on="1"/>
        <pt x="1214" y="105" on="1"/>
        <pt x="1214" y="0" on="1"/>
        <pt x="895" y="0" on="1"/>
      </contour>
    </TTGlyph>
    <TTGlyph name="uni13D8" xMin="67" yMin="-24" xMax="1297" yMax="1324">
      <contour>
        <pt x="938" y="500" on="1"/>
        <pt x="841" y="263" on="0"/>
        <pt x="474" y="-24" on="0"/>
        <pt x="282" y="-24" on="1"/>
        <pt x="186" y="-24" on="0"/>
        <pt x="67" y="59" on="0"/>
        <pt x="67" y="134" on="1"/>
        <pt x="67" y="189" on="0"/>
        <pt x="133" y="258" on="0"/>
        <pt x="181" y="258" on="1"/>
        <pt x="230" y="258" on="0"/>
        <pt x="285" y="209" on="0"/>
        <pt x="285" y="167" on="1"/>
        <pt x="285" y="133" on="0"/>
        <pt x="266" y="109" on="1"/>
        <pt x="296" y="106" on="1"/>
        <pt x="420" y="106" on="0"/>
        <pt x="704" y="331" on="0"/>
        <pt x="927" y="705" on="0"/>
        <pt x="936" y="844" on="1"/>
        <pt x="936" y="1194" on="1"/>
        <pt x="494" y="1194" on="1"/>
        <pt x="479" y="963" on="1"/>
        <pt x="350" y="963" on="1"/>
        <pt x="350" y="1324" on="1"/>
        <pt x="1297" y="1324" on="1"/>
        <pt x="1297" y="1194" on="1"/>
        <pt x="1104" y="1194" on="1"/>
        <pt x="1104" y="0" on="1"/>
        <pt x="936" y="0" on="1"/>
        <pt x="936" y="190" on="1"/>
        <pt x="936" y="239" on="0"/>
        <pt x="943" y="479" on="0"/>
        <pt x="946" y="500" on="1"/>
      </contour>
    </TTGlyph>
    <TTGlyph name="uni13D9" xMin="30" yMin="0" xMax="1385" yMax="1324">
      <contour>
        <pt x="1071" y="1204" on="1"/>
        <pt x="909" y="1219" on="1"/>
        <pt x="909" y="1324" on="1"/>
        <pt x="1385" y="1324" on="1"/>
        <pt x="1385" y="1219" on="1"/>
        <pt x="1236" y="1204" on="1"/>
        <pt x="794" y="0" on="1"/>
        <pt x="591" y="0" on="1"/>
        <pt x="180" y="1204" on="1"/>
        <pt x="30" y="1219" on="1"/>
        <pt x="30" y="1324" on="1"/>
        <pt x="525" y="1324" on="1"/>
        <pt x="525" y="1219" on="1"/>
        <pt x="363" y="1204" on="1"/>
        <pt x="586" y="494" on="1"/>
        <pt x="681" y="178" on="1"/>
        <pt x="697" y="120" on="1"/>
        <pt x="701" y="120" on="1"/>
        <pt x="714" y="164" on="0"/>
        <pt x="781" y="370" on="0"/>
      </contour>
    </TTGlyph>
    <TTGlyph name="uni13DA" xMin="115" yMin="-20" xMax="950" yMax="1340">
      <contour>
        <pt x="561" y="1206" on="1"/>
        <pt x="437" y="1206" on="0"/>
        <pt x="299" y="1096" on="0"/>
        <pt x="299" y="1001" on="1"/>
        <pt x="299" y="943" on="0"/>
        <pt x="354" y="858" on="0"/>
        <pt x="468" y="785" on="0"/>
        <pt x="599" y="732" on="1"/>
        <pt x="742" y="674" on="0"/>
        <pt x="880" y="572" on="0"/>
        <pt x="950" y="442" on="0"/>
        <pt x="950" y="356" on="1"/>
        <pt x="950" y="182" on="0"/>
        <pt x="709" y="-20" on="0"/>
        <pt x="496" y="-20" on="1"/>
        <pt x="384" y="-20" on="0"/>
        <pt x="174" y="37" on="0"/>
        <pt x="115" y="81" on="1"/>
        <pt x="115" y="334" on="1"/>
        <pt x="244" y="334" on="1"/>
        <pt x="256" y="171" on="1"/>
        <pt x="340" y="120" on="0"/>
        <pt x="501" y="120" on="1"/>
        <pt x="781" y="120" on="0"/>
        <pt x="781" y="341" on="1"/>
        <pt x="781" y="398" on="0"/>
        <pt x="731" y="481" on="0"/>
        <pt x="626" y="551" on="0"/>
        <pt x="471" y="615" on="1"/>
        <pt x="286" y="687" on="0"/>
        <pt x="138" y="865" on="0"/>
        <pt x="138" y="994" on="1"/>
        <pt x="138" y="1149" on="0"/>
        <pt x="373" y="1340" on="0"/>
        <pt x="562" y="1340" on="1"/>
        <pt x="667" y="1340" on="0"/>
        <pt x="863" y="1292" on="0"/>
        <pt x="922" y="1249" on="1"/>
        <pt x="922" y="996" on="1"/>
        <pt x="793" y="996" on="1"/>
        <pt x="781" y="1162" on="1"/>
        <pt x="710" y="1206" on="0"/>
      </contour>
    </TTGlyph>
    <TTGlyph name="uni13DB" xMin="110" yMin="-20" xMax="1890" yMax="1344">
      <contour>
        <pt x="1499" y="899" on="1"/>
        <pt x="1540" y="851" on="0"/>
        <pt x="1607" y="851" on="1"/>
        <pt x="1670" y="851" on="0"/>
        <pt x="1745" y="943" on="0"/>
        <pt x="1745" y="1014" on="1"/>
        <pt x="1745" y="1105" on="0"/>
        <pt x="1635" y="1206" on="0"/>
        <pt x="1536" y="1206" on="1"/>
        <pt x="1455" y="1206" on="0"/>
        <pt x="1328" y="1115" on="0"/>
        <pt x="1254" y="942" on="0"/>
        <pt x="1249" y="814" on="1"/>
        <pt x="1106" y="814" on="1"/>
        <pt x="1104" y="886" on="1"/>
        <pt x="1102" y="971" on="0"/>
        <pt x="1043" y="1120" on="0"/>
        <pt x="913" y="1202" on="0"/>
        <pt x="816" y="1206" on="1"/>
        <pt x="816" y="479" on="1"/>
        <pt x="816" y="235" on="0"/>
        <pt x="639" y="-20" on="0"/>
        <pt x="472" y="-20" on="1"/>
        <pt x="110" y="-20" on="0"/>
        <pt x="110" y="567" on="1"/>
        <pt x="110" y="797" on="0"/>
        <pt x="270" y="1151" on="0"/>
        <pt x="569" y="1344" on="0"/>
        <pt x="774" y="1344" on="1"/>
        <pt x="1114" y="1344" on="0"/>
        <pt x="1190" y="1085" on="1"/>
        <pt x="1195" y="1085" on="1"/>
        <pt x="1237" y="1209" on="0"/>
        <pt x="1415" y="1344" on="0"/>
        <pt x="1538" y="1344" on="1"/>
        <pt x="1645" y="1344" on="0"/>
        <pt x="1805" y="1263" on="0"/>
        <pt x="1890" y="1117" on="0"/>
        <pt x="1890" y="1024" on="1"/>
        <pt x="1890" y="895" on="0"/>
        <pt x="1732" y="724" on="0"/>
        <pt x="1608" y="724" on="1"/>
        <pt x="1478" y="724" on="0"/>
        <pt x="1412" y="811" on="1"/>
      </contour>
      <contour>
        <pt x="474" y="120" on="1"/>
        <pt x="565" y="120" on="0"/>
        <pt x="650" y="286" on="0"/>
        <pt x="650" y="467" on="1"/>
        <pt x="650" y="1198" on="1"/>
        <pt x="478" y="1161" on="0"/>
        <pt x="282" y="822" on="0"/>
        <pt x="282" y="570" on="1"/>
        <pt x="282" y="320" on="0"/>
        <pt x="370" y="120" on="0"/>
      </contour>
    </TTGlyph>
    <TTGlyph name="uni13DC" xMin="70" yMin="-20" xMax="1420" yMax="1344">
      <contour>
        <pt x="837" y="259" on="1"/>
        <pt x="837" y="460" on="0"/>
        <pt x="1020" y="549" on="1"/>
        <pt x="809" y="649" on="0"/>
        <pt x="735" y="691" on="1"/>
        <pt x="677" y="658" on="0"/>
        <pt x="538" y="593" on="1"/>
        <pt x="464" y="555" on="1"/>
        <pt x="551" y="509" on="0"/>
        <pt x="653" y="372" on="0"/>
        <pt x="653" y="267" on="1"/>
        <pt x="653" y="178" on="0"/>
        <pt x="573" y="49" on="0"/>
        <pt x="437" y="-20" on="0"/>
        <pt x="359" y="-20" on="1"/>
        <pt x="226" y="-20" on="0"/>
        <pt x="70" y="131" on="0"/>
        <pt x="70" y="262" on="1"/>
        <pt x="70" y="368" on="0"/>
        <pt x="166" y="529" on="0"/>
        <pt x="375" y="669" on="0"/>
        <pt x="602" y="776" on="1"/>
        <pt x="445" y="900" on="0"/>
        <pt x="445" y="1055" on="1"/>
        <pt x="445" y="1142" on="0"/>
        <pt x="526" y="1272" on="0"/>
        <pt x="666" y="1344" on="0"/>
        <pt x="745" y="1344" on="1"/>
        <pt x="824" y="1344" on="0"/>
        <pt x="963" y="1272" on="0"/>
        <pt x="1045" y="1142" on="0"/>
        <pt x="1045" y="1055" on="1"/>
        <pt x="1045" y="976" on="0"/>
        <pt x="973" y="844" on="0"/>
        <pt x="885" y="780" on="1"/>
        <pt x="1091" y="686" on="0"/>
        <pt x="1296" y="557" on="0"/>
        <pt x="1385" y="451" on="0"/>
        <pt x="1420" y="339" on="0"/>
        <pt x="1420" y="270" on="1"/>
        <pt x="1420" y="179" on="0"/>
        <pt x="1341" y="49" on="0"/>
        <pt x="1208" y="-20" on="0"/>
        <pt x="1125" y="-20" on="1"/>
        <pt x="989" y="-20" on="0"/>
        <pt x="837" y="130" on="0"/>
      </contour>
      <contour>
        <pt x="580" y="1065" on="1"/>
        <pt x="580" y="993" on="0"/>
        <pt x="667" y="895" on="0"/>
        <pt x="745" y="850" on="1"/>
        <pt x="823" y="895" on="0"/>
        <pt x="910" y="993" on="0"/>
        <pt x="910" y="1065" on="1"/>
        <pt x="910" y="1133" on="0"/>
        <pt x="816" y="1219" on="0"/>
        <pt x="745" y="1219" on="1"/>
        <pt x="677" y="1219" on="0"/>
        <pt x="580" y="1133" on="0"/>
      </contour>
      <contour>
        <pt x="1280" y="273" on="1"/>
        <pt x="1280" y="348" on="0"/>
        <pt x="1212" y="450" on="0"/>
        <pt x="1141" y="487" on="1"/>
        <pt x="1062" y="461" on="0"/>
        <pt x="977" y="341" on="0"/>
        <pt x="977" y="262" on="1"/>
        <pt x="977" y="189" on="0"/>
        <pt x="1057" y="106" on="0"/>
        <pt x="1125" y="106" on="1"/>
        <pt x="1194" y="106" on="0"/>
        <pt x="1280" y="196" on="0"/>
      </contour>
      <contour>
        <pt x="513" y="267" on="1"/>
        <pt x="513" y="427" on="0"/>
        <pt x="350" y="486" on="1"/>
        <pt x="210" y="414" on="0"/>
        <pt x="210" y="272" on="1"/>
        <pt x="210" y="194" on="0"/>
        <pt x="292" y="106" on="0"/>
        <pt x="359" y="106" on="1"/>
        <pt x="428" y="106" on="0"/>
        <pt x="513" y="194" on="0"/>
      </contour>
    </TTGlyph>
    <TTGlyph name="uni13DD" xMin="70" yMin="0" xMax="1108" yMax="1344">
      <contour>
        <pt x="221" y="792" on="1"/>
        <pt x="221" y="1064" on="0"/>
        <pt x="470" y="1344" on="0"/>
        <pt x="706" y="1344" on="1"/>
        <pt x="818" y="1344" on="0"/>
        <pt x="1004" y="1268" on="0"/>
        <pt x="1108" y="1139" on="0"/>
        <pt x="1108" y="1067" on="1"/>
        <pt x="1108" y="994" on="0"/>
        <pt x="1044" y="924" on="0"/>
        <pt x="994" y="924" on="1"/>
        <pt x="942" y="924" on="0"/>
        <pt x="888" y="981" on="0"/>
        <pt x="888" y="1022" on="1"/>
        <pt x="888" y="1089" on="0"/>
        <pt x="949" y="1115" on="1"/>
        <pt x="920" y="1152" on="0"/>
        <pt x="804" y="1204" on="0"/>
        <pt x="715" y="1204" on="1"/>
        <pt x="554" y="1204" on="0"/>
        <pt x="391" y="1016" on="0"/>
        <pt x="391" y="834" on="1"/>
        <pt x="391" y="130" on="1"/>
        <pt x="962" y="130" on="1"/>
        <pt x="978" y="372" on="1"/>
        <pt x="1107" y="372" on="1"/>
        <pt x="1107" y="0" on="1"/>
        <pt x="70" y="0" on="1"/>
        <pt x="70" y="105" on="1"/>
        <pt x="221" y="120" on="1"/>
      </contour>
    </TTGlyph>
    <TTGlyph name="uni13DE" xMin="115" yMin="0" xMax="1130" yMax="1324">
      <contour>
        <pt x="115" y="0" on="1"/>
        <pt x="115" y="105" on="1"/>
        <pt x="267" y="120" on="1"/>
        <pt x="267" y="1204" on="1"/>
        <pt x="115" y="1219" on="1"/>
        <pt x="115" y="1324" on="1"/>
        <pt x="608" y="1324" on="1"/>
        <pt x="608" y="1219" on="1"/>
        <pt x="435" y="1204" on="1"/>
        <pt x="435" y="130" on="1"/>
        <pt x="985" y="130" on="1"/>
        <pt x="1001" y="372" on="1"/>
        <pt x="1130" y="372" on="1"/>
        <pt x="1130" y="0" on="1"/>
      </contour>
    </TTGlyph>
    <TTGlyph name="uni13DF" xMin="115" yMin="-20" xMax="1175" yMax="1344">
      <contour>
        <pt x="735" y="1204" on="1"/>
        <pt x="514" y="1204" on="0"/>
        <pt x="289" y="926" on="0"/>
        <pt x="289" y="654" on="1"/>
        <pt x="289" y="120" on="0"/>
        <pt x="701" y="120" on="1"/>
        <pt x="836" y="120" on="0"/>
        <pt x="1008" y="245" on="0"/>
        <pt x="1028" y="361" on="1"/>
        <pt x="1175" y="361" on="1"/>
        <pt x="1166" y="188" on="0"/>
        <pt x="907" y="-20" on="0"/>
        <pt x="693" y="-20" on="1"/>
        <pt x="410" y="-20" on="0"/>
        <pt x="115" y="320" on="0"/>
        <pt x="115" y="649" on="1"/>
        <pt x="115" y="976" on="0"/>
        <pt x="446" y="1344" on="0"/>
        <pt x="735" y="1344" on="1"/>
        <pt x="857" y="1344" on="0"/>
        <pt x="1101" y="1256" on="0"/>
        <pt x="1160" y="1188" on="1"/>
        <pt x="1160" y="936" on="1"/>
        <pt x="1015" y="936" on="1"/>
        <pt x="1004" y="1124" on="1"/>
        <pt x="955" y="1164" on="0"/>
        <pt x="813" y="1204" on="0"/>
      </contour>
    </TTGlyph>
    <TTGlyph name="uni13E0" xMin="50" yMin="-20" xMax="1505" yMax="1324">
      <contour>
        <pt x="538" y="587" on="1"/>
        <pt x="478" y="587" on="1"/>
        <pt x="265" y="587" on="0"/>
        <pt x="50" y="757" on="0"/>
        <pt x="50" y="921" on="1"/>
        <pt x="50" y="1066" on="0"/>
        <pt x="242" y="1249" on="0"/>
        <pt x="382" y="1249" on="1"/>
        <pt x="534" y="1249" on="0"/>
        <pt x="696" y="1069" on="0"/>
        <pt x="696" y="901" on="1"/>
        <pt x="696" y="725" on="1"/>
        <pt x="1185" y="725" on="1"/>
        <pt x="1185" y="1204" on="1"/>
        <pt x="1035" y="1219" on="1"/>
        <pt x="1035" y="1324" on="1"/>
        <pt x="1505" y="1324" on="1"/>
        <pt x="1505" y="1219" on="1"/>
        <pt x="1353" y="1204" on="1"/>
        <pt x="1353" y="495" on="1"/>
        <pt x="1353" y="224" on="0"/>
        <pt x="1150" y="-20" on="0"/>
        <pt x="928" y="-20" on="1"/>
        <pt x="727" y="-20" on="0"/>
        <pt x="538" y="204" on="0"/>
        <pt x="538" y="436" on="1"/>
      </contour>
      <contour>
        <pt x="930" y="116" on="1"/>
        <pt x="1029" y="116" on="0"/>
        <pt x="1133" y="190" on="0"/>
        <pt x="1185" y="352" on="0"/>
        <pt x="1185" y="489" on="1"/>
        <pt x="1185" y="587" on="1"/>
        <pt x="696" y="587" on="1"/>
        <pt x="696" y="455" on="1"/>
        <pt x="696" y="274" on="0"/>
        <pt x="806" y="116" on="0"/>
      </contour>
      <contour>
        <pt x="199" y="929" on="1"/>
        <pt x="199" y="830" on="0"/>
        <pt x="327" y="725" on="0"/>
        <pt x="455" y="725" on="1"/>
        <pt x="538" y="725" on="1"/>
        <pt x="538" y="909" on="1"/>
        <pt x="538" y="1118" on="0"/>
        <pt x="377" y="1118" on="1"/>
        <pt x="298" y="1118" on="0"/>
        <pt x="199" y="1013" on="0"/>
      </contour>
    </TTGlyph>
    <TTGlyph name="uni13E1" xMin="10" yMin="-18" xMax="1566" yMax="1345">
      <contour>
        <pt x="529" y="1207" on="1"/>
        <pt x="417" y="1207" on="0"/>
        <pt x="297" y="1086" on="0"/>
        <pt x="289" y="957" on="1"/>
        <pt x="459" y="946" on="1"/>
        <pt x="459" y="841" on="1"/>
        <pt x="10" y="841" on="1"/>
        <pt x="10" y="946" on="1"/>
        <pt x="147" y="960" on="1"/>
        <pt x="160" y="1146" on="0"/>
        <pt x="357" y="1345" on="0"/>
        <pt x="531" y="1345" on="1"/>
        <pt x="706" y="1345" on="0"/>
        <pt x="867" y="1192" on="1"/>
        <pt x="1022" y="1345" on="0"/>
        <pt x="1196" y="1345" on="1"/>
        <pt x="1374" y="1345" on="0"/>
        <pt x="1566" y="1139" on="0"/>
        <pt x="1566" y="942" on="1"/>
        <pt x="1566" y="881" on="0"/>
        <pt x="1558" y="849" on="1"/>
        <pt x="1417" y="849" on="1"/>
        <pt x="1419" y="881" on="1"/>
        <pt x="1419" y="904" on="1"/>
        <pt x="1419" y="1051" on="0"/>
        <pt x="1301" y="1207" on="0"/>
        <pt x="1194" y="1207" on="1"/>
        <pt x="1074" y="1207" on="0"/>
        <pt x="968" y="1093" on="1"/>
        <pt x="1092" y="947" on="0"/>
        <pt x="1228" y="599" on="0"/>
        <pt x="1228" y="431" on="1"/>
        <pt x="1228" y="231" on="0"/>
        <pt x="1023" y="-18" on="0"/>
        <pt x="848" y="-18" on="1"/>
        <pt x="686" y="-18" on="0"/>
        <pt x="496" y="205" on="0"/>
        <pt x="496" y="395" on="1"/>
        <pt x="496" y="559" on="0"/>
        <pt x="651" y="947" on="0"/>
        <pt x="769" y="1082" on="1"/>
        <pt x="649" y="1207" on="0"/>
      </contour>
      <contour>
        <pt x="1059" y="422" on="1"/>
        <pt x="1059" y="568" on="0"/>
        <pt x="960" y="867" on="0"/>
        <pt x="869" y="986" on="1"/>
        <pt x="779" y="868" on="0"/>
        <pt x="659" y="541" on="0"/>
        <pt x="659" y="406" on="1"/>
        <pt x="659" y="264" on="0"/>
        <pt x="757" y="120" on="0"/>
        <pt x="851" y="120" on="1"/>
        <pt x="949" y="120" on="0"/>
        <pt x="1059" y="284" on="0"/>
      </contour>
    </TTGlyph>
    <TTGlyph name="uni13E2" xMin="115" yMin="0" xMax="1148" yMax="1324">
      <contour>
        <pt x="1148" y="942" on="1"/>
        <pt x="1148" y="532" on="0"/>
        <pt x="629" y="532" on="1"/>
        <pt x="436" y="532" on="1"/>
        <pt x="436" y="120" on="1"/>
        <pt x="600" y="105" on="1"/>
        <pt x="600" y="0" on="1"/>
        <pt x="115" y="0" on="1"/>
        <pt x="115" y="105" on="1"/>
        <pt x="266" y="120" on="1"/>
        <pt x="266" y="1204" on="1"/>
        <pt x="115" y="1219" on="1"/>
        <pt x="115" y="1324" on="1"/>
        <pt x="607" y="1324" on="1"/>
        <pt x="881" y="1324" on="0"/>
        <pt x="1148" y="1139" on="0"/>
      </contour>
      <contour>
        <pt x="436" y="662" on="1"/>
        <pt x="628" y="662" on="1"/>
        <pt x="808" y="662" on="0"/>
        <pt x="979" y="795" on="0"/>
        <pt x="979" y="937" on="1"/>
        <pt x="979" y="1067" on="0"/>
        <pt x="805" y="1194" on="0"/>
        <pt x="610" y="1194" on="1"/>
        <pt x="436" y="1194" on="1"/>
      </contour>
    </TTGlyph>
    <TTGlyph name="uni13E3" xMin="115" yMin="-20" xMax="1287" yMax="1344">
      <contour>
        <pt x="706" y="130" on="1"/>
        <pt x="845" y="130" on="0"/>
        <pt x="1022" y="227" on="0"/>
        <pt x="1056" y="319" on="1"/>
        <pt x="1006" y="324" on="0"/>
        <pt x="950" y="375" on="0"/>
        <pt x="950" y="419" on="1"/>
        <pt x="950" y="464" on="0"/>
        <pt x="1012" y="526" on="0"/>
        <pt x="1066" y="526" on="1"/>
        <pt x="1123" y="526" on="0"/>
        <pt x="1199" y="446" on="0"/>
        <pt x="1199" y="364" on="1"/>
        <pt x="1199" y="254" on="0"/>
        <pt x="1077" y="80" on="0"/>
        <pt x="847" y="-20" on="0"/>
        <pt x="698" y="-20" on="1"/>
        <pt x="418" y="-20" on="0"/>
        <pt x="115" y="330" on="0"/>
        <pt x="115" y="654" on="1"/>
        <pt x="115" y="862" on="0"/>
        <pt x="260" y="1176" on="0"/>
        <pt x="537" y="1344" on="0"/>
        <pt x="726" y="1344" on="1"/>
        <pt x="837" y="1344" on="0"/>
        <pt x="1045" y="1254" on="0"/>
        <pt x="1157" y="1111" on="0"/>
        <pt x="1169" y="1018" on="1"/>
        <pt x="1287" y="1003" on="1"/>
        <pt x="1287" y="898" on="1"/>
        <pt x="851" y="898" on="1"/>
        <pt x="851" y="1001" on="1"/>
        <pt x="1003" y="1017" on="1"/>
        <pt x="1003" y="1096" on="0"/>
        <pt x="844" y="1194" on="0"/>
        <pt x="720" y="1194" on="1"/>
        <pt x="289" y="1194" on="0"/>
        <pt x="289" y="660" on="1"/>
        <pt x="289" y="405" on="0"/>
        <pt x="505" y="130" on="0"/>
      </contour>
    </TTGlyph>
    <TTGlyph name="uni13E4" xMin="100" yMin="0" xMax="1492" yMax="1324">
      <contour>
        <pt x="583" y="1194" on="1"/>
        <pt x="244" y="1194" on="1"/>
        <pt x="229" y="987" on="1"/>
        <pt x="100" y="987" on="1"/>
        <pt x="100" y="1324" on="1"/>
        <pt x="965" y="1324" on="1"/>
        <pt x="965" y="1194" on="1"/>
        <pt x="747" y="1194" on="1"/>
        <pt x="747" y="766" on="1"/>
        <pt x="747" y="585" on="0"/>
        <pt x="720" y="139" on="1"/>
        <pt x="728" y="139" on="1"/>
        <pt x="740" y="184" on="0"/>
        <pt x="908" y="528" on="1"/>
        <pt x="1309" y="1324" on="1"/>
        <pt x="1492" y="1324" on="1"/>
        <pt x="784" y="0" on="1"/>
        <pt x="583" y="0" on="1"/>
      </contour>
    </TTGlyph>
    <TTGlyph name="uni13E5" xMin="115" yMin="0" xMax="1624" yMax="1324">
      <contour>
        <pt x="947" y="120" on="1"/>
        <pt x="947" y="727" on="1"/>
        <pt x="830" y="722" on="0"/>
        <pt x="557" y="616" on="0"/>
        <pt x="435" y="478" on="0"/>
        <pt x="435" y="395" on="1"/>
        <pt x="435" y="120" on="1"/>
        <pt x="586" y="105" on="1"/>
        <pt x="586" y="0" on="1"/>
        <pt x="115" y="0" on="1"/>
        <pt x="115" y="105" on="1"/>
        <pt x="267" y="120" on="1"/>
        <pt x="267" y="1204" on="1"/>
        <pt x="115" y="1219" on="1"/>
        <pt x="115" y="1324" on="1"/>
        <pt x="586" y="1324" on="1"/>
        <pt x="586" y="1219" on="1"/>
        <pt x="435" y="1204" on="1"/>
        <pt x="435" y="807" on="1"/>
        <pt x="435" y="709" on="0"/>
        <pt x="425" y="641" on="1"/>
        <pt x="435" y="641" on="1"/>
        <pt x="536" y="753" on="0"/>
        <pt x="865" y="871" on="0"/>
        <pt x="1067" y="871" on="1"/>
        <pt x="1304" y="871" on="0"/>
        <pt x="1624" y="708" on="0"/>
        <pt x="1624" y="579" on="1"/>
        <pt x="1624" y="507" on="0"/>
        <pt x="1558" y="438" on="0"/>
        <pt x="1508" y="438" on="1"/>
        <pt x="1457" y="438" on="0"/>
        <pt x="1400" y="492" on="0"/>
        <pt x="1400" y="534" on="1"/>
        <pt x="1400" y="602" on="0"/>
        <pt x="1459" y="628" on="1"/>
        <pt x="1445" y="669" on="0"/>
        <pt x="1240" y="727" on="0"/>
        <pt x="1115" y="727" on="1"/>
        <pt x="1115" y="120" on="1"/>
        <pt x="1269" y="105" on="1"/>
        <pt x="1269" y="0" on="1"/>
        <pt x="795" y="0" on="1"/>
        <pt x="795" y="105" on="1"/>
      </contour>
    </TTGlyph>
    <TTGlyph name="uni13E6" xMin="115" yMin="0" xMax="1353" yMax="1324">
      <contour>
        <pt x="436" y="570" on="1"/>
        <pt x="597" y="760" on="1"/>
        <pt x="1000" y="1209" on="1"/>
        <pt x="856" y="1219" on="1"/>
        <pt x="856" y="1324" on="1"/>
        <pt x="1314" y="1324" on="1"/>
        <pt x="1314" y="1219" on="1"/>
        <pt x="1186" y="1208" on="1"/>
        <pt x="781" y="771" on="1"/>
        <pt x="1222" y="121" on="1"/>
        <pt x="1353" y="105" on="1"/>
        <pt x="1353" y="0" on="1"/>
        <pt x="870" y="0" on="1"/>
        <pt x="870" y="105" on="1"/>
        <pt x="1017" y="120" on="1"/>
        <pt x="664" y="645" on="1"/>
        <pt x="541" y="511" on="1"/>
        <pt x="436" y="407" on="1"/>
        <pt x="436" y="120" on="1"/>
        <pt x="587" y="105" on="1"/>
        <pt x="587" y="0" on="1"/>
        <pt x="115" y="0" on="1"/>
        <pt x="115" y="105" on="1"/>
        <pt x="267" y="120" on="1"/>
        <pt x="267" y="1204" on="1"/>
        <pt x="115" y="1219" on="1"/>
        <pt x="115" y="1324" on="1"/>
        <pt x="587" y="1324" on="1"/>
        <pt x="587" y="1219" on="1"/>
        <pt x="436" y="1204" on="1"/>
      </contour>
    </TTGlyph>
    <TTGlyph name="uni13E7" xMin="50" yMin="-20" xMax="985" yMax="1324">
      <contour>
        <pt x="426" y="782" on="1"/>
        <pt x="507" y="782" on="0"/>
        <pt x="630" y="721" on="0"/>
        <pt x="666" y="665" on="1"/>
        <pt x="676" y="665" on="1"/>
        <pt x="674" y="683" on="0"/>
        <pt x="667" y="815" on="0"/>
        <pt x="667" y="859" on="1"/>
        <pt x="667" y="1204" on="1"/>
        <pt x="515" y="1219" on="1"/>
        <pt x="515" y="1324" on="1"/>
        <pt x="985" y="1324" on="1"/>
        <pt x="985" y="1219" on="1"/>
        <pt x="835" y="1204" on="1"/>
        <pt x="835" y="536" on="1"/>
        <pt x="835" y="-20" on="0"/>
        <pt x="426" y="-20" on="1"/>
        <pt x="255" y="-20" on="0"/>
        <pt x="50" y="196" on="0"/>
        <pt x="50" y="374" on="1"/>
        <pt x="50" y="560" on="0"/>
        <pt x="256" y="782" on="0"/>
      </contour>
      <contour>
        <pt x="432" y="114" on="1"/>
        <pt x="542" y="114" on="0"/>
        <pt x="664" y="276" on="0"/>
        <pt x="664" y="414" on="1"/>
        <pt x="664" y="519" on="0"/>
        <pt x="538" y="648" on="0"/>
        <pt x="441" y="648" on="1"/>
        <pt x="368" y="648" on="0"/>
        <pt x="262" y="587" on="0"/>
        <pt x="206" y="462" on="0"/>
        <pt x="206" y="379" on="1"/>
        <pt x="206" y="257" on="0"/>
        <pt x="328" y="114" on="0"/>
      </contour>
    </TTGlyph>
    <TTGlyph name="uni13E8" xMin="115" yMin="-20" xMax="1470" yMax="1344">
      <contour>
        <pt x="115" y="656" on="1"/>
        <pt x="115" y="864" on="0"/>
        <pt x="254" y="1177" on="0"/>
        <pt x="518" y="1344" on="0"/>
        <pt x="697" y="1344" on="1"/>
        <pt x="950" y="1344" on="0"/>
        <pt x="1069" y="1146" on="1"/>
        <pt x="1177" y="1295" on="1"/>
        <pt x="1181" y="1295" on="1"/>
        <pt x="1289" y="1141" on="1"/>
        <pt x="1386" y="1284" on="1"/>
        <pt x="1390" y="1284" on="1"/>
        <pt x="1470" y="1185" on="1"/>
        <pt x="1294" y="946" on="1"/>
        <pt x="1290" y="946" on="1"/>
        <pt x="1170" y="1111" on="1"/>
        <pt x="1053" y="951" on="1"/>
        <pt x="1049" y="951" on="1"/>
        <pt x="973" y="1087" on="0"/>
        <pt x="808" y="1204" on="0"/>
        <pt x="697" y="1204" on="1"/>
        <pt x="503" y="1204" on="0"/>
        <pt x="289" y="912" on="0"/>
        <pt x="289" y="651" on="1"/>
        <pt x="289" y="392" on="0"/>
        <pt x="486" y="120" on="0"/>
        <pt x="675" y="120" on="1"/>
        <pt x="794" y="120" on="0"/>
        <pt x="975" y="248" on="0"/>
        <pt x="1050" y="375" on="1"/>
        <pt x="1054" y="375" on="1"/>
        <pt x="1170" y="215" on="1"/>
        <pt x="1290" y="381" on="1"/>
        <pt x="1294" y="381" on="1"/>
        <pt x="1470" y="153" on="1"/>
        <pt x="1390" y="53" on="1"/>
        <pt x="1386" y="53" on="1"/>
        <pt x="1289" y="184" on="1"/>
        <pt x="1174" y="31" on="1"/>
        <pt x="1170" y="31" on="1"/>
        <pt x="1050" y="179" on="1"/>
        <pt x="987" y="83" on="0"/>
        <pt x="789" y="-20" on="0"/>
        <pt x="670" y="-20" on="1"/>
        <pt x="400" y="-20" on="0"/>
        <pt x="115" y="328" on="0"/>
      </contour>
    </TTGlyph>
    <TTGlyph name="uni13E9" xMin="115" yMin="-20" xMax="1607" yMax="1344">
      <contour>
        <pt x="751" y="1204" on="1"/>
        <pt x="529" y="1204" on="0"/>
        <pt x="289" y="921" on="0"/>
        <pt x="289" y="652" on="1"/>
        <pt x="289" y="404" on="0"/>
        <pt x="493" y="120" on="0"/>
        <pt x="680" y="120" on="1"/>
        <pt x="816" y="120" on="0"/>
        <pt x="1005" y="251" on="0"/>
        <pt x="1027" y="365" on="1"/>
        <pt x="1027" y="469" on="1"/>
        <pt x="867" y="485" on="1"/>
        <pt x="867" y="588" on="1"/>
        <pt x="1333" y="588" on="1"/>
        <pt x="1333" y="485" on="1"/>
        <pt x="1182" y="469" on="1"/>
        <pt x="1182" y="392" on="1"/>
        <pt x="1182" y="252" on="0"/>
        <pt x="1258" y="124" on="0"/>
        <pt x="1330" y="124" on="1"/>
        <pt x="1404" y="124" on="0"/>
        <pt x="1473" y="211" on="0"/>
        <pt x="1477" y="304" on="1"/>
        <pt x="1479" y="369" on="1"/>
        <pt x="1604" y="369" on="1"/>
        <pt x="1607" y="282" on="1"/>
        <pt x="1607" y="263" on="1"/>
        <pt x="1607" y="140" on="0"/>
        <pt x="1457" y="-2" on="0"/>
        <pt x="1339" y="-2" on="1"/>
        <pt x="1237" y="-2" on="0"/>
        <pt x="1107" y="72" on="0"/>
        <pt x="1071" y="157" on="1"/>
        <pt x="945" y="-20" on="0"/>
        <pt x="667" y="-20" on="1"/>
        <pt x="407" y="-20" on="0"/>
        <pt x="115" y="330" on="0"/>
        <pt x="115" y="647" on="1"/>
        <pt x="115" y="857" on="0"/>
        <pt x="268" y="1173" on="0"/>
        <pt x="557" y="1344" on="0"/>
        <pt x="751" y="1344" on="1"/>
        <pt x="871" y="1344" on="0"/>
        <pt x="1083" y="1270" on="0"/>
        <pt x="1205" y="1140" on="0"/>
        <pt x="1205" y="1062" on="1"/>
        <pt x="1205" y="990" on="0"/>
        <pt x="1142" y="919" on="0"/>
        <pt x="1091" y="919" on="1"/>
        <pt x="1040" y="919" on="0"/>
        <pt x="982" y="975" on="0"/>
        <pt x="982" y="1017" on="1"/>
        <pt x="982" y="1078" on="0"/>
        <pt x="1037" y="1107" on="1"/>
        <pt x="1009" y="1150" on="0"/>
        <pt x="849" y="1204" on="0"/>
      </contour>
    </TTGlyph>
    <TTGlyph name="uni13EA" xMin="60" yMin="-20" xMax="1852" yMax="1344">
      <contour>
        <pt x="1124" y="120" on="1"/>
        <pt x="1384" y="120" on="0"/>
        <pt x="1522" y="321" on="1"/>
        <pt x="1394" y="429" on="0"/>
        <pt x="1252" y="753" on="0"/>
        <pt x="1252" y="962" on="1"/>
        <pt x="1252" y="1125" on="0"/>
        <pt x="1413" y="1329" on="0"/>
        <pt x="1549" y="1329" on="1"/>
        <pt x="1852" y="1329" on="0"/>
        <pt x="1852" y="933" on="1"/>
        <pt x="1852" y="795" on="0"/>
        <pt x="1768" y="448" on="0"/>
        <pt x="1629" y="202" on="0"/>
        <pt x="1464" y="55" on="0"/>
        <pt x="1251" y="-20" on="0"/>
        <pt x="1116" y="-20" on="1"/>
        <pt x="889" y="-20" on="0"/>
        <pt x="733" y="124" on="1"/>
        <pt x="670" y="58" on="0"/>
        <pt x="511" y="-20" on="0"/>
        <pt x="426" y="-20" on="1"/>
        <pt x="254" y="-20" on="0"/>
        <pt x="60" y="191" on="0"/>
        <pt x="60" y="380" on="1"/>
        <pt x="60" y="427" on="0"/>
        <pt x="69" y="478" on="1"/>
        <pt x="210" y="478" on="1"/>
        <pt x="208" y="445" on="1"/>
        <pt x="208" y="412" on="1"/>
        <pt x="208" y="275" on="0"/>
        <pt x="323" y="120" on="0"/>
        <pt x="426" y="120" on="1"/>
        <pt x="480" y="120" on="0"/>
        <pt x="593" y="173" on="0"/>
        <pt x="639" y="227" on="1"/>
        <pt x="523" y="364" on="0"/>
        <pt x="395" y="721" on="0"/>
        <pt x="395" y="909" on="1"/>
        <pt x="395" y="1111" on="0"/>
        <pt x="574" y="1344" on="0"/>
        <pt x="732" y="1344" on="1"/>
        <pt x="887" y="1344" on="0"/>
        <pt x="1058" y="1121" on="0"/>
        <pt x="1058" y="925" on="1"/>
        <pt x="1058" y="755" on="0"/>
        <pt x="933" y="375" on="0"/>
        <pt x="830" y="235" on="1"/>
        <pt x="946" y="120" on="0"/>
      </contour>
      <contour>
        <pt x="559" y="911" on="1"/>
        <pt x="559" y="568" on="0"/>
        <pt x="734" y="333" on="1"/>
        <pt x="813" y="467" on="0"/>
        <pt x="895" y="772" on="0"/>
        <pt x="895" y="921" on="1"/>
        <pt x="895" y="1062" on="0"/>
        <pt x="811" y="1209" on="0"/>
        <pt x="732" y="1209" on="1"/>
        <pt x="651" y="1209" on="0"/>
        <pt x="559" y="1052" on="0"/>
      </contour>
      <contour>
        <pt x="1405" y="963" on="1"/>
        <pt x="1405" y="803" on="0"/>
        <pt x="1509" y="525" on="0"/>
        <pt x="1597" y="443" on="1"/>
        <pt x="1642" y="539" on="0"/>
        <pt x="1699" y="816" on="0"/>
        <pt x="1699" y="936" on="1"/>
        <pt x="1699" y="1078" on="0"/>
        <pt x="1628" y="1204" on="0"/>
        <pt x="1554" y="1204" on="1"/>
        <pt x="1485" y="1204" on="0"/>
        <pt x="1405" y="1074" on="0"/>
      </contour>
    </TTGlyph>
    <TTGlyph name="uni13EB" xMin="115" yMin="-18" xMax="1320" yMax="1344">
      <contour>
        <pt x="716" y="-18" on="1"/>
        <pt x="428" y="-18" on="0"/>
        <pt x="115" y="338" on="0"/>
        <pt x="115" y="661" on="1"/>
        <pt x="115" y="980" on="0"/>
        <pt x="434" y="1344" on="0"/>
        <pt x="719" y="1344" on="1"/>
        <pt x="1007" y="1344" on="0"/>
        <pt x="1320" y="988" on="0"/>
        <pt x="1320" y="665" on="1"/>
        <pt x="1320" y="346" on="0"/>
        <pt x="1001" y="-18" on="0"/>
      </contour>
      <contour>
        <pt x="716" y="121" on="1"/>
        <pt x="874" y="121" on="0"/>
        <pt x="1083" y="288" on="0"/>
        <pt x="1126" y="451" on="1"/>
        <pt x="664" y="451" on="1"/>
        <pt x="659" y="456" on="1"/>
        <pt x="628" y="766" on="1"/>
        <pt x="292" y="766" on="1"/>
        <pt x="287" y="709" on="0"/>
        <pt x="287" y="660" on="1"/>
        <pt x="287" y="393" on="0"/>
        <pt x="508" y="121" on="0"/>
      </contour>
      <contour>
        <pt x="719" y="1205" on="1"/>
        <pt x="565" y="1205" on="0"/>
        <pt x="360" y="1047" on="0"/>
        <pt x="314" y="896" on="1"/>
        <pt x="762" y="896" on="1"/>
        <pt x="769" y="889" on="1"/>
        <pt x="802" y="581" on="1"/>
        <pt x="1145" y="581" on="1"/>
        <pt x="1148" y="607" on="0"/>
        <pt x="1148" y="666" on="1"/>
        <pt x="1148" y="932" on="0"/>
        <pt x="926" y="1205" on="0"/>
      </contour>
    </TTGlyph>
    <TTGlyph name="uni13EC" xMin="115" yMin="-15" xMax="1839" yMax="1344">
      <contour>
        <pt x="965" y="130" on="1"/>
        <pt x="1178" y="130" on="0"/>
        <pt x="1502" y="295" on="0"/>
        <pt x="1679" y="609" on="0"/>
        <pt x="1679" y="819" on="1"/>
        <pt x="1679" y="1006" on="0"/>
        <pt x="1565" y="1188" on="0"/>
        <pt x="1448" y="1188" on="1"/>
        <pt x="1365" y="1188" on="0"/>
        <pt x="1258" y="1086" on="0"/>
        <pt x="1258" y="1003" on="1"/>
        <pt x="1258" y="928" on="0"/>
        <pt x="1330" y="837" on="0"/>
        <pt x="1400" y="831" on="1"/>
        <pt x="1400" y="691" on="1"/>
        <pt x="1264" y="695" on="0"/>
        <pt x="1112" y="860" on="0"/>
        <pt x="1112" y="994" on="1"/>
        <pt x="1112" y="1086" on="0"/>
        <pt x="1197" y="1239" on="0"/>
        <pt x="1349" y="1324" on="0"/>
        <pt x="1447" y="1324" on="1"/>
        <pt x="1573" y="1324" on="0"/>
        <pt x="1749" y="1203" on="0"/>
        <pt x="1839" y="978" on="0"/>
        <pt x="1839" y="828" on="1"/>
        <pt x="1839" y="577" on="0"/>
        <pt x="1630" y="194" on="0"/>
        <pt x="1233" y="-15" on="0"/>
        <pt x="963" y="-15" on="1"/>
        <pt x="709" y="-15" on="0"/>
        <pt x="327" y="195" on="0"/>
        <pt x="115" y="580" on="0"/>
        <pt x="115" y="819" on="1"/>
        <pt x="115" y="1066" on="0"/>
        <pt x="332" y="1344" on="0"/>
        <pt x="519" y="1344" on="1"/>
        <pt x="681" y="1344" on="0"/>
        <pt x="873" y="1109" on="0"/>
        <pt x="873" y="909" on="1"/>
        <pt x="873" y="760" on="0"/>
        <pt x="806" y="548" on="0"/>
        <pt x="663" y="348" on="0"/>
        <pt x="547" y="258" on="1"/>
        <pt x="731" y="130" on="0"/>
      </contour>
      <contour>
        <pt x="287" y="830" on="1"/>
        <pt x="287" y="537" on="0"/>
        <pt x="448" y="347" on="1"/>
        <pt x="542" y="426" on="0"/>
        <pt x="653" y="600" on="0"/>
        <pt x="705" y="779" on="0"/>
        <pt x="705" y="908" on="1"/>
        <pt x="705" y="1054" on="0"/>
        <pt x="607" y="1208" on="0"/>
        <pt x="515" y="1208" on="1"/>
        <pt x="404" y="1208" on="0"/>
        <pt x="287" y="1019" on="0"/>
      </contour>
    </TTGlyph>
    <TTGlyph name="uni13ED" xMin="100" yMin="-20" xMax="1051" yMax="1344">
      <contour>
        <pt x="527" y="116" on="1"/>
        <pt x="635" y="116" on="0"/>
        <pt x="791" y="248" on="0"/>
        <pt x="826" y="360" on="1"/>
        <pt x="603" y="446" on="0"/>
        <pt x="325" y="628" on="0"/>
        <pt x="195" y="826" on="0"/>
        <pt x="195" y="955" on="1"/>
        <pt x="195" y="1063" on="0"/>
        <pt x="297" y="1242" on="0"/>
        <pt x="484" y="1344" on="0"/>
        <pt x="607" y="1344" on="1"/>
        <pt x="827" y="1344" on="0"/>
        <pt x="1051" y="1038" on="0"/>
        <pt x="1051" y="744" on="1"/>
        <pt x="1051" y="526" on="0"/>
        <pt x="922" y="163" on="0"/>
        <pt x="692" y="-20" on="0"/>
        <pt x="528" y="-20" on="1"/>
        <pt x="322" y="-20" on="0"/>
        <pt x="100" y="205" on="0"/>
        <pt x="100" y="415" on="1"/>
        <pt x="100" y="453" on="0"/>
        <pt x="106" y="478" on="1"/>
        <pt x="252" y="478" on="1"/>
        <pt x="251" y="461" on="1"/>
        <pt x="251" y="445" on="1"/>
        <pt x="251" y="284" on="0"/>
        <pt x="390" y="116" on="0"/>
      </contour>
      <contour>
        <pt x="605" y="1213" on="1"/>
        <pt x="500" y="1213" on="0"/>
        <pt x="360" y="1065" on="0"/>
        <pt x="360" y="958" on="1"/>
        <pt x="360" y="815" on="0"/>
        <pt x="588" y="609" on="0"/>
        <pt x="864" y="497" on="1"/>
        <pt x="884" y="613" on="0"/>
        <pt x="884" y="750" on="1"/>
        <pt x="884" y="992" on="0"/>
        <pt x="747" y="1213" on="0"/>
      </contour>
    </TTGlyph>
    <TTGlyph name="uni13EE" xMin="125" yMin="-16" xMax="1036" yMax="1344">
      <contour>
        <pt x="125" y="550" on="1"/>
        <pt x="125" y="919" on="0"/>
        <pt x="403" y="1344" on="0"/>
        <pt x="651" y="1344" on="1"/>
        <pt x="755" y="1344" on="0"/>
        <pt x="921" y="1277" on="0"/>
        <pt x="1018" y="1158" on="0"/>
        <pt x="1018" y="1092" on="1"/>
        <pt x="1018" y="1025" on="0"/>
        <pt x="957" y="960" on="0"/>
        <pt x="910" y="960" on="1"/>
        <pt x="860" y="960" on="0"/>
        <pt x="809" y="1015" on="0"/>
        <pt x="809" y="1052" on="1"/>
        <pt x="809" y="1111" on="0"/>
        <pt x="860" y="1141" on="1"/>
        <pt x="804" y="1210" on="0"/>
        <pt x="656" y="1210" on="1"/>
        <pt x="542" y="1210" on="0"/>
        <pt x="378" y="1069" on="0"/>
        <pt x="288" y="812" on="0"/>
        <pt x="284" y="644" on="1"/>
        <pt x="294" y="644" on="1"/>
        <pt x="341" y="730" on="0"/>
        <pt x="516" y="822" on="0"/>
        <pt x="622" y="822" on="1"/>
        <pt x="808" y="822" on="0"/>
        <pt x="1036" y="593" on="0"/>
        <pt x="1036" y="413" on="1"/>
        <pt x="1036" y="228" on="0"/>
        <pt x="776" y="-16" on="0"/>
        <pt x="574" y="-16" on="1"/>
        <pt x="359" y="-16" on="0"/>
        <pt x="125" y="270" on="0"/>
      </contour>
      <contour>
        <pt x="579" y="118" on="1"/>
        <pt x="707" y="118" on="0"/>
        <pt x="872" y="278" on="0"/>
        <pt x="872" y="415" on="1"/>
        <pt x="872" y="541" on="0"/>
        <pt x="727" y="689" on="0"/>
        <pt x="602" y="689" on="1"/>
        <pt x="514" y="689" on="0"/>
        <pt x="379" y="616" on="0"/>
        <pt x="303" y="485" on="0"/>
        <pt x="303" y="408" on="1"/>
        <pt x="303" y="280" on="0"/>
        <pt x="455" y="118" on="0"/>
      </contour>
    </TTGlyph>
    <TTGlyph name="uni13EF" xMin="70" yMin="-20" xMax="1851" yMax="1344">
      <contour>
        <pt x="1116" y="1204" on="1"/>
        <pt x="985" y="1204" on="0"/>
        <pt x="750" y="1133" on="0"/>
        <pt x="683" y="1076" on="1"/>
        <pt x="598" y="1178" on="1"/>
        <pt x="670" y="1255" on="0"/>
        <pt x="948" y="1344" on="0"/>
        <pt x="1123" y="1344" on="1"/>
        <pt x="1332" y="1344" on="0"/>
        <pt x="1667" y="1172" on="0"/>
        <pt x="1851" y="862" on="0"/>
        <pt x="1851" y="670" on="1"/>
        <pt x="1851" y="352" on="0"/>
        <pt x="1542" y="-20" on="0"/>
        <pt x="1276" y="-20" on="1"/>
        <pt x="1138" y="-20" on="0"/>
        <pt x="966" y="106" on="0"/>
        <pt x="921" y="227" on="1"/>
        <pt x="911" y="227" on="1"/>
        <pt x="850" y="109" on="0"/>
        <pt x="637" y="-20" on="0"/>
        <pt x="505" y="-20" on="1"/>
        <pt x="298" y="-20" on="0"/>
        <pt x="70" y="208" on="0"/>
        <pt x="70" y="418" on="1"/>
        <pt x="70" y="504" on="0"/>
        <pt x="120" y="697" on="0"/>
        <pt x="151" y="735" on="1"/>
        <pt x="292" y="729" on="1"/>
        <pt x="268" y="680" on="0"/>
        <pt x="232" y="520" on="0"/>
        <pt x="232" y="440" on="1"/>
        <pt x="232" y="288" on="0"/>
        <pt x="375" y="120" on="0"/>
        <pt x="504" y="120" on="1"/>
        <pt x="639" y="120" on="0"/>
        <pt x="816" y="278" on="0"/>
        <pt x="860" y="416" on="1"/>
        <pt x="852" y="481" on="0"/>
        <pt x="769" y="620" on="0"/>
        <pt x="726" y="632" on="1"/>
        <pt x="706" y="632" on="0"/>
        <pt x="577" y="604" on="0"/>
        <pt x="530" y="586" on="1"/>
        <pt x="518" y="713" on="1"/>
        <pt x="620" y="765" on="0"/>
        <pt x="716" y="765" on="1"/>
        <pt x="792" y="765" on="0"/>
        <pt x="897" y="681" on="0"/>
        <pt x="931" y="589" on="1"/>
        <pt x="940" y="589" on="1"/>
        <pt x="974" y="675" on="0"/>
        <pt x="1049" y="760" on="0"/>
        <pt x="1104" y="760" on="1"/>
        <pt x="1124" y="760" on="0"/>
        <pt x="1175" y="742" on="1"/>
        <pt x="1226" y="724" on="0"/>
        <pt x="1270" y="724" on="1"/>
        <pt x="1309" y="724" on="0"/>
        <pt x="1363" y="739" on="1"/>
        <pt x="1373" y="607" on="1"/>
        <pt x="1314" y="585" on="0"/>
        <pt x="1251" y="585" on="1"/>
        <pt x="1170" y="585" on="0"/>
        <pt x="1108" y="627" on="1"/>
        <pt x="1077" y="605" on="0"/>
        <pt x="1010" y="466" on="0"/>
        <pt x="998" y="405" on="1"/>
        <pt x="1014" y="278" on="0"/>
        <pt x="1168" y="120" on="0"/>
        <pt x="1281" y="120" on="1"/>
        <pt x="1465" y="120" on="0"/>
        <pt x="1679" y="408" on="0"/>
        <pt x="1679" y="654" on="1"/>
        <pt x="1679" y="814" on="0"/>
        <pt x="1536" y="1065" on="0"/>
        <pt x="1276" y="1204" on="0"/>
      </contour>
    </TTGlyph>
    <TTGlyph name="uni13F0" xMin="30" yMin="-492" xMax="1303" yMax="1344">
      <contour>
        <pt x="174" y="573" on="1"/>
        <pt x="178" y="429" on="0"/>
        <pt x="321" y="218" on="0"/>
        <pt x="448" y="169" on="1"/>
        <pt x="448" y="873" on="1"/>
        <pt x="448" y="1093" on="0"/>
        <pt x="683" y="1344" on="0"/>
        <pt x="890" y="1344" on="1"/>
        <pt x="999" y="1344" on="0"/>
        <pt x="1182" y="1265" on="0"/>
        <pt x="1283" y="1126" on="0"/>
        <pt x="1283" y="1043" on="1"/>
        <pt x="1283" y="965" on="0"/>
        <pt x="1206" y="841" on="0"/>
        <pt x="1125" y="782" on="1"/>
        <pt x="991" y="689" on="1"/>
        <pt x="991" y="679" on="1"/>
        <pt x="1153" y="621" on="0"/>
        <pt x="1303" y="471" on="0"/>
        <pt x="1303" y="364" on="1"/>
        <pt x="1303" y="186" on="0"/>
        <pt x="1020" y="-20" on="0"/>
        <pt x="773" y="-20" on="1"/>
        <pt x="738" y="-20" on="0"/>
        <pt x="635" y="-11" on="0"/>
        <pt x="614" y="-7" on="1"/>
        <pt x="614" y="-492" on="1"/>
        <pt x="448" y="-492" on="1"/>
        <pt x="448" y="21" on="1"/>
        <pt x="237" y="84" on="0"/>
        <pt x="30" y="356" on="0"/>
        <pt x="30" y="573" on="1"/>
      </contour>
      <contour>
        <pt x="769" y="120" on="1"/>
        <pt x="942" y="120" on="0"/>
        <pt x="1138" y="246" on="0"/>
        <pt x="1138" y="354" on="1"/>
        <pt x="1138" y="416" on="0"/>
        <pt x="1052" y="506" on="0"/>
        <pt x="960" y="542" on="1"/>
        <pt x="905" y="562" on="0"/>
        <pt x="847" y="615" on="0"/>
        <pt x="847" y="664" on="1"/>
        <pt x="847" y="701" on="0"/>
        <pt x="890" y="761" on="0"/>
        <pt x="981" y="833" on="1"/>
        <pt x="1065" y="901" on="0"/>
        <pt x="1119" y="987" on="0"/>
        <pt x="1119" y="1038" on="1"/>
        <pt x="1119" y="1116" on="0"/>
        <pt x="998" y="1208" on="0"/>
        <pt x="890" y="1208" on="1"/>
        <pt x="760" y="1208" on="0"/>
        <pt x="614" y="1046" on="0"/>
        <pt x="614" y="907" on="1"/>
        <pt x="614" y="131" on="1"/>
        <pt x="691" y="120" on="0"/>
      </contour>
    </TTGlyph>
    <TTGlyph name="uni13F1" xMin="60" yMin="-15" xMax="1448" yMax="1324">
      <contour>
        <pt x="60" y="253" on="1"/>
        <pt x="156" y="255" on="0"/>
        <pt x="261" y="362" on="0"/>
        <pt x="261" y="450" on="1"/>
        <pt x="261" y="534" on="0"/>
        <pt x="175" y="637" on="0"/>
        <pt x="87" y="645" on="1"/>
        <pt x="87" y="767" on="1"/>
        <pt x="246" y="763" on="0"/>
        <pt x="339" y="655" on="1"/>
        <pt x="495" y="764" on="0"/>
        <pt x="694" y="983" on="0"/>
        <pt x="698" y="1067" on="1"/>
        <pt x="698" y="1204" on="1"/>
        <pt x="541" y="1219" on="1"/>
        <pt x="541" y="1324" on="1"/>
        <pt x="1014" y="1324" on="1"/>
        <pt x="1014" y="1219" on="1"/>
        <pt x="857" y="1204" on="1"/>
        <pt x="857" y="1022" on="1"/>
        <pt x="1159" y="975" on="0"/>
        <pt x="1448" y="702" on="0"/>
        <pt x="1448" y="460" on="1"/>
        <pt x="1448" y="329" on="0"/>
        <pt x="1331" y="109" on="0"/>
        <pt x="1121" y="-15" on="0"/>
        <pt x="987" y="-15" on="1"/>
        <pt x="823" y="-15" on="0"/>
        <pt x="637" y="144" on="0"/>
        <pt x="637" y="278" on="1"/>
        <pt x="637" y="406" on="0"/>
        <pt x="802" y="560" on="0"/>
        <pt x="936" y="562" on="1"/>
        <pt x="936" y="440" on="1"/>
        <pt x="868" y="437" on="0"/>
        <pt x="792" y="356" on="0"/>
        <pt x="792" y="289" on="1"/>
        <pt x="792" y="208" on="0"/>
        <pt x="899" y="115" on="0"/>
        <pt x="984" y="115" on="1"/>
        <pt x="1069" y="115" on="0"/>
        <pt x="1204" y="203" on="0"/>
        <pt x="1277" y="360" on="0"/>
        <pt x="1277" y="453" on="1"/>
        <pt x="1277" y="566" on="0"/>
        <pt x="1217" y="712" on="0"/>
        <pt x="1103" y="811" on="0"/>
        <pt x="921" y="879" on="0"/>
        <pt x="800" y="894" on="1"/>
        <pt x="733" y="793" on="0"/>
        <pt x="513" y="594" on="0"/>
        <pt x="401" y="524" on="1"/>
        <pt x="408" y="486" on="0"/>
        <pt x="408" y="450" on="1"/>
        <pt x="408" y="310" on="0"/>
        <pt x="217" y="136" on="0"/>
        <pt x="61" y="132" on="1"/>
      </contour>
    </TTGlyph>
    <TTGlyph name="uni13F2" xMin="70" yMin="0" xMax="1282" yMax="1344">
      <contour>
        <pt x="222" y="782" on="1"/>
        <pt x="222" y="1055" on="0"/>
        <pt x="472" y="1344" on="0"/>
        <pt x="712" y="1344" on="1"/>
        <pt x="836" y="1344" on="0"/>
        <pt x="1025" y="1278" on="0"/>
        <pt x="1130" y="1156" on="0"/>
        <pt x="1130" y="1081" on="1"/>
        <pt x="1130" y="1010" on="0"/>
        <pt x="1067" y="944" on="0"/>
        <pt x="1017" y="944" on="1"/>
        <pt x="966" y="944" on="0"/>
        <pt x="909" y="1001" on="0"/>
        <pt x="909" y="1041" on="1"/>
        <pt x="909" y="1106" on="0"/>
        <pt x="966" y="1135" on="1"/>
        <pt x="943" y="1169" on="0"/>
        <pt x="816" y="1210" on="0"/>
        <pt x="713" y="1210" on="1"/>
        <pt x="560" y="1210" on="0"/>
        <pt x="390" y="1011" on="0"/>
        <pt x="390" y="830" on="1"/>
        <pt x="390" y="778" on="1"/>
        <pt x="390" y="721" on="0"/>
        <pt x="382" y="637" on="1"/>
        <pt x="394" y="637" on="1"/>
        <pt x="484" y="813" on="0"/>
        <pt x="725" y="813" on="1"/>
        <pt x="927" y="813" on="0"/>
        <pt x="1130" y="599" on="0"/>
        <pt x="1130" y="371" on="1"/>
        <pt x="1130" y="120" on="1"/>
        <pt x="1282" y="105" on="1"/>
        <pt x="1282" y="0" on="1"/>
        <pt x="810" y="0" on="1"/>
        <pt x="810" y="105" on="1"/>
        <pt x="962" y="120" on="1"/>
        <pt x="962" y="363" on="1"/>
        <pt x="962" y="679" on="0"/>
        <pt x="707" y="679" on="1"/>
        <pt x="390" y="679" on="0"/>
        <pt x="390" y="317" on="1"/>
        <pt x="390" y="120" on="1"/>
        <pt x="541" y="105" on="1"/>
        <pt x="541" y="0" on="1"/>
        <pt x="70" y="0" on="1"/>
        <pt x="70" y="105" on="1"/>
        <pt x="222" y="120" on="1"/>
      </contour>
    </TTGlyph>
    <TTGlyph name="uni13F3" xMin="115" yMin="-20" xMax="1476" yMax="1344">
      <contour>
        <pt x="1294" y="1147" on="1"/>
        <pt x="1392" y="1290" on="1"/>
        <pt x="1396" y="1290" on="1"/>
        <pt x="1476" y="1191" on="1"/>
        <pt x="1299" y="951" on="1"/>
        <pt x="1295" y="951" on="1"/>
        <pt x="1176" y="1110" on="1"/>
        <pt x="1059" y="951" on="1"/>
        <pt x="1055" y="951" on="1"/>
        <pt x="972" y="1092" on="0"/>
        <pt x="812" y="1204" on="0"/>
        <pt x="704" y="1204" on="1"/>
        <pt x="507" y="1204" on="0"/>
        <pt x="288" y="915" on="0"/>
        <pt x="288" y="652" on="1"/>
        <pt x="288" y="401" on="0"/>
        <pt x="496" y="120" on="0"/>
        <pt x="687" y="120" on="1"/>
        <pt x="820" y="120" on="0"/>
        <pt x="1025" y="271" on="0"/>
        <pt x="1048" y="391" on="1"/>
        <pt x="1048" y="469" on="1"/>
        <pt x="888" y="485" on="1"/>
        <pt x="888" y="588" on="1"/>
        <pt x="1354" y="588" on="1"/>
        <pt x="1354" y="485" on="1"/>
        <pt x="1203" y="469" on="1"/>
        <pt x="1203" y="0" on="1"/>
        <pt x="1049" y="0" on="1"/>
        <pt x="1049" y="186" on="1"/>
        <pt x="921" y="-20" on="0"/>
        <pt x="674" y="-20" on="1"/>
        <pt x="408" y="-20" on="0"/>
        <pt x="115" y="328" on="0"/>
        <pt x="115" y="647" on="1"/>
        <pt x="115" y="972" on="0"/>
        <pt x="428" y="1344" on="0"/>
        <pt x="704" y="1344" on="1"/>
        <pt x="954" y="1344" on="0"/>
        <pt x="1075" y="1146" on="1"/>
        <pt x="1182" y="1295" on="1"/>
        <pt x="1186" y="1295" on="1"/>
      </contour>
    </TTGlyph>
    <TTGlyph name="uni13F4" xMin="115" yMin="0" xMax="1218" yMax="1324">
      <contour>
        <pt x="115" y="105" on="1"/>
        <pt x="288" y="120" on="1"/>
        <pt x="288" y="1204" on="1"/>
        <pt x="115" y="1219" on="1"/>
        <pt x="115" y="1324" on="1"/>
        <pt x="574" y="1324" on="1"/>
        <pt x="905" y="1324" on="0"/>
        <pt x="1179" y="1168" on="0"/>
        <pt x="1179" y="994" on="1"/>
        <pt x="1179" y="881" on="0"/>
        <pt x="1053" y="728" on="0"/>
        <pt x="941" y="706" on="1"/>
        <pt x="941" y="696" on="1"/>
        <pt x="1079" y="667" on="0"/>
        <pt x="1218" y="512" on="0"/>
        <pt x="1218" y="376" on="1"/>
        <pt x="1218" y="187" on="0"/>
        <pt x="952" y="0" on="0"/>
        <pt x="673" y="0" on="1"/>
        <pt x="115" y="0" on="1"/>
      </contour>
      <contour>
        <pt x="458" y="624" on="1"/>
        <pt x="458" y="130" on="1"/>
        <pt x="673" y="130" on="1"/>
        <pt x="861" y="130" on="0"/>
        <pt x="1043" y="249" on="0"/>
        <pt x="1043" y="387" on="1"/>
        <pt x="1043" y="510" on="0"/>
        <pt x="889" y="624" on="0"/>
        <pt x="730" y="624" on="1"/>
      </contour>
      <contour>
        <pt x="458" y="754" on="1"/>
        <pt x="719" y="754" on="1"/>
        <pt x="872" y="754" on="0"/>
        <pt x="1009" y="859" on="0"/>
        <pt x="1009" y="977" on="1"/>
        <pt x="1009" y="1090" on="0"/>
        <pt x="848" y="1194" on="0"/>
        <pt x="650" y="1194" on="1"/>
        <pt x="458" y="1194" on="1"/>
      </contour>
    </TTGlyph>
</ttFont>
